<?xml version="1.0" encoding="utf-8"?>
<!-- Generator: Adobe Illustrator 23.0.4, SVG Export Plug-In . SVG Version: 6.00 Build 0)  -->
<svg version="1.1" id="Layer_1" xmlns="http://www.w3.org/2000/svg" xmlns:xlink="http://www.w3.org/1999/xlink" x="0px" y="0px"
	 viewBox="0 0 2226.6 235.7" style="enable-background:new 0 0 2226.6 235.7;" xml:space="preserve">
<style type="text/css">
	.st0{fill:#FFFFFF;}
</style>
<path class="st0" d="M577.9,124.9L2,109.1h428.7l-28.2-9.8l575.9,15.7H549.6L577.9,124.9z M641.5,153.6l22.1,6.4l-257.4,17.8
	l354.1-11.7l-22.1-6.4l257.4-17.8L641.5,153.6z M634.4,74.6l354.1,11.7L731,68.5l22.1-6.4L399,50.4l257.4,17.8L634.4,74.6z
	 M2224,109.1h-428.4l28.2-9.8l-575.5,15.7h428.4l-28.2,9.8L2224,109.1z M1584.9,153.6L1231,141.9l257.3,17.8l-22.1,6.4l353.9,11.7
	L1562.8,160L1584.9,153.6z M1592,74.6l-22.1-6.4l257.3-17.8l-353.9,11.7l22.1,6.4l-257.3,17.8L1592,74.6z M1204.2,116.4
	c0,50.6-41.2,91.7-91.7,91.7s-91.7-41.2-91.7-91.7c0-50.6,41.2-91.7,91.7-91.7S1204.2,65.8,1204.2,116.4z M1092.4,172.1
	c-0.1,1.5-0.3,3-0.3,4.4c0,1,0,16.5,0,24.2c1.2,0.3,2.4,0.6,3.7,0.8c0-8.1,0-25.5,0-26.8c0-0.1,0.1-0.3,0.2-0.5
	c1.4,0.1,2.8,0.1,4.1,0.3c0.3,0.1,0.9,0.5,0.9,0.8c0,1.3,0,19.5,0,27h2.7v-27.4h0.3v27.4h6.5v-27.8h6.5v27.8h1.8v-25.4
	c0-2.8,0-2.8,3-2.4v27.8h3.2c1.7-0.2,3.4-0.5,5.1-0.9c0-7.7,0-24.5,0-25.2c0-3.4-1.1-4.6-4.2-4.9c3.6-0.3,7.4-0.4,11.2-0.8
	c7.3-0.7,14.5-2.2,21.3-5.2c11.9-5.2,19-14.4,21.3-27.1c1.1-5.9,1.4-11.9,2.1-17.9c0.1-1,0.2-2.1,0.3-3.1c3.8-0.5,5.6-2.7,5.6-8
	c0-1.5-0.6-3-1.2-4.4c-0.7-1.4-1.9-2.4-3.6-2.5c-1.5-0.1-3,0-4.6,0c-0.6-3.7-1.1-7.4-1.7-11.1c0.3-0.1,0.7-0.1,1.3-0.3
	c-0.8-1-1.5-2-2.3-3.1c0.6-0.1,0.9-0.2,1.5-0.4c-0.8-0.9-1.5-1.8-2.3-2.8c0.8-0.1,1.3-0.1,2-0.2c-0.1-0.2-0.1-0.4-0.3-0.5
	c-2.5-2.1-4-4.9-5.7-7.6c-6.3-9.9-14.9-16.4-26.7-18.4c-8.1-1.4-16.2-1.5-24.3-0.9c-8.2,0.6-16.4,1.3-24.6,2.4
	c-11.2,1.5-22.1,4.1-32.1,9.7c-11.3,6.3-17.1,16-18.6,28.7c-1.2,10.4-0.9,20.8,0.4,31.1c1.1,8.7,3.4,17.1,9,24.1
	c6.5,8.2,14.8,13.7,24.9,16.3c4.2,1.1,8.5,1.8,12.7,2.7C1091.9,171.9,1092.2,172,1092.4,172.1z M1199.2,116.4
	c0-47.8-38.9-86.7-86.7-86.7s-86.7,38.9-86.7,86.7c0,39.1,26,72.3,61.7,83c0-10.1,0-22.2,0-23.2c0-0.3,0-0.6,0-0.9
	c-0.3-0.1-0.7-0.1-1-0.2c-2.9-0.6-6-1.2-9-1.9c-11-2.8-20.2-8.8-27.3-17.8c-5.4-6.8-8.5-15.1-9.9-26.2c-1.5-11.5-1.6-22-0.4-32.2
	c1.7-14.5,8.7-25.3,20.8-32c9.3-5.2,20-8.5,33.7-10.2c7.4-1,15.3-1.7,24.9-2.4c9.4-0.7,17.7-0.4,25.3,0.9c12.4,2.1,22.4,9,29.7,20.4
	c0.3,0.5,0.6,1,1,1.6c1.2,2,2.3,3.8,3.8,5l0.2,0.1l0.1,0.1c0.7,0.7,1,1.4,1.1,1.8l2.8,5.7l-0.2,0l1.5,1.9l-1.9,0.4l2.5,3.3l-4,0.8
	c0.1,0.5,0.1,0.9,0.2,1.4c0.1,0.6,0.2,1.2,0.3,1.8c0.3,0,0.7,0,1,0c3.2,0.1,6,2,7.4,5l0,0c1.1,2.3,1.6,4.2,1.6,6.1l0,0
	c0,3.6-0.7,6.3-2.2,8.4c-1,1.3-2.2,2.3-3.7,3c0,0.1,0,0.1,0,0.2c-0.2,1.8-0.4,3.6-0.5,5.4c-0.4,4.2-0.8,8.5-1.6,12.8
	c-2.6,14.4-10.7,24.6-23.9,30.4c-6.5,2.9-13.9,4.7-22.6,5.6c-1,0.1-2,0.2-3,0.3c0,0.4,0,0.7,0,1.1c0,1,0,16.7,0,24.5
	C1171.6,190.7,1199.2,156.7,1199.2,116.4z M1224.9,116.4c0,62-50.4,112.4-112.4,112.4s-112.4-50.4-112.4-112.4S1050.5,4,1112.5,4
	S1224.9,54.4,1224.9,116.4z M1213.1,116.4c0-55.5-45.1-100.6-100.6-100.6s-100.6,45.1-100.6,100.6c0,55.5,45.1,100.6,100.6,100.6
	S1213.1,171.9,1213.1,116.4z M1106.3,170.9c0.1,0,0.1,0,0.2,0V167c-0.1,0-0.1,0-0.2,0V170.9z M1099.4,169.1
	c-8.7-1-17.1-2.1-25.4-4.7c0.2,0,0.5,0,0.7,0.1c7.7,1.9,15.6,2.4,23.5,2.7c0.3,0,0.7-0.3,1.1-0.5c-0.1-0.1-0.1-0.3-0.2-0.4
	c-0.4,0-0.7-0.1-1.1-0.1c-6.3-0.5-12.6-0.7-18.8-1.5c-6.5-0.9-12.8-2.7-18.2-6.6c-0.1-0.1-0.3-0.1-0.7-0.1c5.6,5,12.1,7.1,18.7,8.8
	C1086.2,168.5,1098.1,170,1099.4,169.1z M1101,170.9c1.3,0,2.4,0,3.4,0v-4.2c-1.2-0.1-2.3-0.1-3.4-0.2V170.9z M1099.1,84.5
	c0.5-0.5,1-1.1,1.8-1.9c-0.6,0.1-0.8,0.2-1,0.3c-4.3,1.3-7.9,3.7-11.2,6.7c-7.8,7.2-12.4,15.8-11.7,26.6c0.1,2,0.7,4,1,5.9
	c0.1,0,0.3,0,0.4-0.1c0.1-0.3,0.2-0.6,0.2-0.9c0.8-7.9,3.6-15.1,7.9-21.7C1090.1,94,1094.5,89.2,1099.1,84.5z M1115.9,67.4
	c-0.5-0.2-1-0.2-1.5-0.2c-7.4,0.4-14.8,0.6-22.2,1.2c-6.4,0.5-12.8,1.6-18.9,3.7c-6.1,2.1-11.6,5.2-15.5,10.5
	c-3.9,5.2-5,11.3-5.3,17.7c-0.4,8.2-0.3,16.3,0.8,24.4c0.3,2.3,0.9,4.7,1.4,7c0.2,0,0.4,0.1,0.5,0.1
	C1066,101.4,1086,79.7,1115.9,67.4z M1167.1,82.7c0.1,1.2,2.1,2.4,4.3,2.6C1170.9,82.8,1170.5,82.5,1167.1,82.7z M1172.4,105.8
	c2.1,0,4.1-0.1,6.1,0c1.4,0.1,2.4-0.3,2.8-1.9c-2.3,0-4.6-0.1-6.8,0C1173.3,104,1172.6,104.7,1172.4,105.8z M1167.7,85.9
	c0.2,0.6,0.3,1.4,0.7,1.6c1.3,0.7,2.7,1.2,4.1,1.8C1172.3,86.1,1171.7,85.7,1167.7,85.9z M1185.2,107.6c-0.1-2.2-1.3-3.5-3-3.4
	C1182.5,106,1183,106.6,1185.2,107.6z M1174.4,113.1c0.1,0.4,0.3,0.8,0.4,1c2,0.2,4,0.3,6.3,0.5c-0.8-0.4-1.4-0.6-2.1-1
	c1.3-0.1,2.3-0.2,3.4-0.3c0-0.1,0-0.2,0-0.3H1174.4z M1115.5,166.7h-4.5v4.1c3.9,1,4.6,0.5,4.6-3.3
	C1115.6,167.3,1115.5,167,1115.5,166.7z M1178.1,114.9c0.7,0.1,1.3,0.2,2.1,0.3c-0.2,2.1-0.3,4.2-0.5,6.3
	c-0.5,6.2-1.1,12.4-2.7,18.5c-3.5,13.4-12.5,21.4-25.4,25.5c-9.2,2.9-18.7,3.7-28.4,3.8c-0.9,0-1.9,0.1-2.8,0
	c-1.1-0.1-2.1,0-1.7,1.6h-2v-3.2c0-0.3,0.1-0.7,0.1-1.1c0.5,0,0.9-0.1,1-0.1c0.1,0.9,0.1,1.7,0.1,2.6c0.1,0,0.3,0,0.4,0
	c0.1-0.8,0.2-1.7,0.4-2.8c3.4,0,6.7,0.1,10,0c8.5-0.4,17-1.5,25.1-4.5c12.2-4.6,19.2-13.4,21.3-26.1c1.1-6.5,1.5-13.2,2.3-19.7
	c0-0.3,0.1-0.6,0.1-1C1177.7,114.9,1177.9,114.8,1178.1,114.9z M1178,121c-0.9,4.8-1.5,9.7-2.3,14.5c-2.2,13.2-9.5,22.3-22,27.1
	c-8.5,3.2-17.4,4.4-26.4,4.9c-1.6,0.1-3.2,0.2-5.1,0.3c4,0,7.6,0.1,11.2,0c7.4-0.3,14.6-1.6,21.5-4.3c10.3-4,17.4-10.9,20.5-21.7
	c1.6-5.5,2-11.2,2.4-16.8C1177.8,123.6,1177.9,122.3,1178,121z M1183.2,107.5c-0.6,0-1.2,0.9-1.6,1.5c-0.2,0.3-0.2,0.9-0.3,1.5
	c-0.5-1.7-0.9-3.3,1.5-3.6c-0.5-0.8-0.9-1.4-1.4-2.3c-0.3,0.9-0.6,1.7-0.7,2.5c-0.1,0.9,0,1.7,0,2.3c-0.3-0.4-0.6-1.4-1-1.5
	c-2.7-0.1-5.4-0.1-8.1-0.1c0,0.8,0,1.3,0,1.9c0.1,0.8,0.4,1.3,1.4,1.3c2.2-0.1,4.5-0.1,6.7-0.2c0.5,0,1.1,0.2,1.6,0.3
	c0,0.2,0,0.3-0.1,0.5h-8.6v0.4c1.5,0,3.1-0.1,4.7,0c1.9,0.1,4-0.5,5.8,0.7c0.2,0.1,0.6,0,0.8-0.1c1-0.6,1.8-2.8,1.1-3.8
	C1184.6,108.2,1183.8,107.4,1183.2,107.5z M1162.1,156.1c2.2-1.3,6.2-5.4,6.4-6.4C1166.5,151.8,1164,154.3,1162.1,156.1z
	 M1072.6,160.2c-7.9-0.6-13.6-4.8-17.8-11.2c-3.7-5.8-5.6-12.2-6.6-18.9c-1.5-9.8-1.6-19.7-0.8-29.6c0.8-10.2,4.2-19.2,12.6-25.6
	c5-3.8,10.6-6.3,16.6-8.2c8.7-2.8,17.6-4.2,26.6-5.2c9.3-1,18.7-1.9,28.1-1.6c5.8,0.1,11.5,0.7,17.1,2.3c4.6,1.3,8.4,3.7,10.8,7.9
	c0.2,0.4,0.5,0.8,1.1,1.1c-0.5-1.2-0.9-2.2-1.5-3.4c4.2,2.3,5.4,6.4,7.5,10c-0.3-0.7-0.6-1.5-0.8-2.2c-0.3-0.8-0.6-1.6-0.7-2.4
	c2.5,2.6,4.2,5.7,5.9,9.4c-2.2-1-4-1.7-5.8-2.6c-0.5-0.2-0.7-1-1-1.5c-0.6-1.1-1.2-2.2-2-3.3c0.1,0.2,0.1,0.5,0.2,0.7
	c3.3,7,4.9,14.4,5.8,22c0.9,8.1,1,16.1,0.2,24.2c-0.6,5.7-1.5,11.4-2.3,17.1c-0.1,0.5-0.1,0.9,0,1.5c0.4-1.3,0.8-2.6,1.1-3.9
	c3-11.5,4.2-23.3,3.2-35.2c-0.2-2.3-0.7-4.5-0.9-6.8c-0.1-1.7,0-3.4,0-5.4c0.7,0.3,1,0.4,1.4,0.5c0,0,0,0,0,0c2.3-0.3,2.5-0.3,3,2
	c0.6,3,1,6.1,1.5,9.2c0.2,1.1-0.4,1.4-1.3,1.6c-0.5-2.8-0.9-5.6-1.6-8.4c-0.3-1.4-1-2.8-1.5-4.2c1.2,4.3,1.7,8.8,1.6,13.3
	c0,0.6-0.2,1.3-0.5,1.9c-1.2,2.8-1.2,5.5-0.1,8.3c0.3,0.8,0.5,1.7,0.5,2.6c0.1,5-0.2,10-1.2,14.9c1.7-4.8,2.1-9.8,2.6-14.9
	c1,0.2,1.7,0.5,1.5,1.6c-0.7,7.4-1.5,14.7-4.4,21.6c-2,4.8-5,8.9-9.2,12.6c0.5-1.4,0.8-2.4,1.3-3.8c-1.2,1.1-2,1.9-2.9,2.8
	c1.2-2.5,2.1-4.9,2.2-7.8c-0.3,0.2-0.4,0.3-0.5,0.3c-3.2,7.7-9.3,12.3-17.1,14.5c-4.7,1.3-9.6,2-14.5,2.3c-11.6,0.6-23.3,1-34.9,1.1
	C1087.5,161.5,1080.1,160.8,1072.6,160.2z M1163,130.1c2.4-11.2,1.7-22.4,0.4-33.6c-0.1,0-0.3,0-0.4,0.1V130.1z M1156.3,73.7
	c2.9,5.1,4.3,10.8,5.9,16.4C1162.2,83.9,1160.5,78.4,1156.3,73.7z M1155.1,135.5c-0.1,0.4-0.2,0.6-0.2,0.9c-0.6,4.9-3,8.8-6.7,11.9
	c-4.6,3.9-10.1,5.8-15.8,7.2c-0.7,0.2-1.3,0.3-2,0.5c3.2,0.5,9.9-1.1,14-3.1c4.3-2.1,7.7-5.1,9.7-9.5
	C1155.3,140.6,1155.7,137.7,1155.1,135.5z M1106.8,62.6c0,0.1,0,0.2,0,0.3c0.7,0,1.3,0,2,0c9.7-0.5,19.4-0.7,29,0.6
	c5.2,0.7,10.2,1.8,14.7,4.6c0.2,0.1,0.5,0.1,0.7,0.2c0.1-0.1,0.1-0.2,0.2-0.3c-1.3-0.9-2.5-1.9-3.8-2.7c-3.4-1.9-7.2-2.7-11-3.2
	c-6.7-0.9-13.5-0.9-20.3-0.5C1114.5,61.7,1110.7,62.2,1106.8,62.6z M1140.8,70c5.6,3.2,9,8,11.5,13.6
	C1153.1,77.7,1146,69.2,1140.8,70z M1070.1,155.4c4.7,1.3,9.5,1.9,14.3,1.8c10.9-0.2,21.7-0.4,32.6-0.9c6.8-0.3,13.5-1.6,20.1-3.6
	c9.6-3.2,15.6-9.5,16.8-19.7c0.7-6,0.9-12,1.1-18c0.2-7.8,0.3-15.6-0.8-23.3c-0.3-1.7-0.6-3.5-1-5.5c-0.6,0.6-0.9,0.9-1.1,1.2
	c-5.2,5.9-14.4,6.8-20.8,2.2c-6.7-4.9-6.5-13.9,0.5-18.3c1.8-1.1,3.8-1.8,5.9-2.7c-0.5-0.1-0.9-0.3-1.3-0.4
	c-6.2-1.8-12.7-2.3-19.1-2.2c-6.2,0.1-12.3,0.4-18.5,0.8c-7.6,0.4-15.2,1.3-22.6,3.5c-3.6,1.1-7.2,2.4-10.6,4.1
	c-10.7,5.3-15.2,14.6-15.9,26c-0.3,5.8-0.4,11.6-0.3,17.5c0.1,6.9,0.9,13.8,3.1,20.4C1055.5,146.9,1061,153,1070.1,155.4z"/>
</svg>
