<?xml version="1.0" encoding="utf-8"?>
<!-- Generator: Adobe Illustrator 24.2.3, SVG Export Plug-In . SVG Version: 6.00 Build 0)  -->
<svg version="1.1" id="Layer_1" xmlns="http://www.w3.org/2000/svg" xmlns:xlink="http://www.w3.org/1999/xlink" x="0px" y="0px"
	 viewBox="0 0 433.22 433.22" style="enable-background:new 0 0 433.22 433.22;" xml:space="preserve">
<style type="text/css">
	.st0{opacity:0.9;}
	.st1{display:none;}
	.st2{display:inline;fill:#FFFFFF;stroke:#000000;stroke-width:6;stroke-miterlimit:10;}
	.st3{display:inline;}
	.st4{fill:#010101;}
	.st5{fill:#FFFFFF;}
	.st6{fill:none;stroke:#010101;stroke-width:9.5254;stroke-miterlimit:10;}
	.st7{clip-path:url(#SVGID_2_);}
	.st8{fill:none;stroke:#010101;stroke-width:1.6196;stroke-miterlimit:10;}
	.st9{fill:none;stroke:#010101;stroke-width:0.5652;stroke-miterlimit:10;}
	.st10{fill:none;stroke:#FFFFFF;stroke-width:3.9516;stroke-miterlimit:10;}
	.st11{fill:none;stroke:#FFFFFF;stroke-width:3.9986;stroke-miterlimit:10;}
	.st12{fill:none;stroke:#010101;stroke-width:1.1305;stroke-miterlimit:10;}
	.st13{fill:none;}
	.st14{clip-path:url(#SVGID_4_);}
</style>
<g class="st0">
	<g>
		<g class="st1">
			<path class="st2" d="M-548.28,1290.34h-224.18c-5.81,0-10.56-4.75-10.56-10.56v-33.22c0-5.81,4.75-10.56,10.56-10.56h224.18
				c5.81,0,10.56,4.75,10.56,10.56v33.22C-537.71,1285.59-542.47,1290.34-548.28,1290.34z"/>
			<rect x="-780.93" y="1247.03" class="st3" width="7.92" height="7.92"/>
			<rect x="-780.93" y="1259.03" class="st3" width="7.92" height="7.92"/>
			<rect x="-780.93" y="1271.03" class="st3" width="7.92" height="7.92"/>
			<rect x="-548.93" y="1247.03" class="st3" width="7.92" height="7.92"/>
			<rect x="-548.93" y="1259.03" class="st3" width="7.92" height="7.92"/>
			<rect x="-548.93" y="1271.03" class="st3" width="7.92" height="7.92"/>
		</g>
		<g id="Comics" class="st1">
			
				<text transform="matrix(1 0 0 1 -764.8652 1279.8442)" class="st3" style="font-family:'LHFEgyptian'; font-size:61px; letter-spacing:13;">COMICS</text>
			<g class="st3">
				<g>
					<polygon class="st4" points="-730.48,1033.65 -752.28,1070.84 -730.48,1070.84 -730.48,1236.48 -688.39,1236.48 
						-688.39,1070.84 -688.39,1033.65 					"/>
				</g>
				<g>
					<path class="st4" d="M-602.98,1033.65h-52.63c-11.43,0-20.69,9.26-20.69,20.69v161.44c0,11.43,9.26,20.69,20.69,20.69h52.63
						c11.43,0,20.69-9.27,20.69-20.69v-161.44C-582.29,1042.92-591.55,1033.65-602.98,1033.65z M-624.28,1189.68h-10.73v-112.22
						h10.73V1189.68z"/>
				</g>
			</g>
			<g class="st3">
				<g>
					<path class="st5" d="M-565.22,1082.97c-20.15,0-36.55-16.4-36.55-36.55s16.4-36.55,36.55-36.55c20.15,0,36.55,16.4,36.55,36.55
						S-545.07,1082.97-565.22,1082.97z"/>
					<path class="st4" d="M-565.22,1015.1c17.27,0,31.33,14.05,31.33,31.33s-14.05,31.33-31.33,31.33s-31.33-14.05-31.33-31.33
						S-582.5,1015.1-565.22,1015.1 M-565.22,1004.65c-23.07,0-41.77,18.7-41.77,41.77s18.7,41.77,41.77,41.77
						s41.77-18.7,41.77-41.77S-542.15,1004.65-565.22,1004.65L-565.22,1004.65z"/>
				</g>
				<g>
					<path class="st6" d="M-555.83,1035.13h-11.44c-4.74,0-8.59,3.84-8.59,8.59v5.04c0,4.74,3.84,8.59,8.59,8.59h11.44"/>
					<line class="st6" x1="-564.91" y1="1020.24" x2="-564.91" y2="1032.56"/>
					<line class="st6" x1="-564.91" y1="1059.9" x2="-564.91" y2="1072.22"/>
				</g>
			</g>
		</g>
		<g id="Movies__x26__TV" class="st1">
			<g class="st3">
				<text transform="matrix(1 0 0 1 -765.3583 1281.8442)" style="font-family:'LHFEgyptian'; font-size:61px; letter-spacing:1;">MOVIES TV</text>
				
					<text transform="matrix(1 0 0 1 -618.5361 1275.9189)" style="font-family:'LHFEgyptian'; font-size:32.8462px; letter-spacing:1;">&amp;</text>
			</g>
			<g id="XMLID_15_" class="st3">
				<path id="XMLID_17_" d="M-552.62,1133.69c0.01-0.13,0.03-0.28,0.05-0.46C-552.58,1133.31-552.6,1133.49-552.62,1133.69z"/>
				<path id="XMLID_24_" d="M-540.97,1119.91c0.01,0.12,0.03,0.27,0.05,0.41C-540.94,1120.13-540.96,1120-540.97,1119.91z"/>
				<path id="XMLID_25_" d="M-674.73,1214.84C-674.73,1214.84-674.73,1214.84-674.73,1214.84c0-0.04,0-0.07,0-0.09
					C-674.73,1214.77-674.73,1214.8-674.73,1214.84z"/>
				<path id="XMLID_26_" d="M-540.97,1119.91C-540.99,1119.69-541.01,1119.59-540.97,1119.91L-540.97,1119.91z"/>
				<path id="XMLID_31_" d="M-674.73,1214.74C-674.73,1214.67-674.73,1214.64-674.73,1214.74L-674.73,1214.74z"/>
				<path id="XMLID_32_" d="M-552.69,1134.32c0.01-0.11,0.03-0.24,0.04-0.38C-552.67,1134.1-552.68,1134.22-552.69,1134.32z"/>
				<path id="XMLID_57_" d="M-671.49,1220.09C-671.47,1219.93-671.77,1220.09-671.49,1220.09L-671.49,1220.09z"/>
				<path id="XMLID_99_" d="M-552.7,1134.41c-0.01,0.07-0.01,0.1-0.01,0.12C-552.71,1134.51-552.7,1134.47-552.7,1134.41z"/>
				<path id="XMLID_101_" d="M-557.05,1144.44c-0.2,1.29-0.39,2.58-0.57,3.87c-0.37,2.59-0.73,5.18-1.11,7.77
					c-0.75,5.16-1.62,10.28-3.06,15.3c-2.29,8.01-6.01,15.59-11.67,21.76c-5.73,6.26-13.09,10.75-20.92,13.89
					c-8.4,3.37-17.38,5.33-26.34,6.47c-4.46,0.57-8.95,1.02-13.44,1.28c-2.42,0.14-4.84,0.24-7.26,0.33
					c-1.93,0.08-3.94-0.03-5.86,0.21c2.1,0.69,4.9,0.32,7.09,0.36c2.75,0.04,5.51,0.03,8.26-0.07c5.17-0.18,10.34-0.54,15.47-1.23
					c17.34-2.34,35.5-8.27,46.65-22.56c5.51-7.06,8.72-15.54,10.48-24.26c0.91-4.55,1.44-9.16,1.87-13.77
					c0.21-2.28,0.4-4.56,0.61-6.84c0.1-1.16,0.22-2.32,0.35-3.48c0.09-0.81,0.36-1.8,0.18-2.61
					C-556.86,1141.86-556.88,1143.33-557.05,1144.44z"/>
				<polygon id="XMLID_103_" points="-552.57,1133.2 -552.57,1133.2 -552.57,1133.2 				"/>
				<path id="XMLID_104_" d="M-652.36,1213.45c-0.79-0.15-1.42,1.31-1.51,1.96c0.01-0.21,0.01-0.57-0.01,0.11
					c0.04,0.34,0.67,2.38,1.35,2.03c0.3-0.15-0.39-1.89-0.31-2.38C-652.76,1214.78-651.71,1213.57-652.36,1213.45z"/>
				<path id="XMLID_107_" d="M-744.34,1186.44c5.57,4.67,12.47,7.31,19.51,8.82c7.94,1.71,16.12,2.1,24.22,2.28
					c8.24,0.19,16.48,0.04,24.72-0.1c16.12-0.27,32.67-0.86,48.38-4.82c7.05-1.78,14.17-4.39,19.92-8.96
					c5.25-4.18,8.79-9.85,10.82-16.21c2.42-7.58,3.02-15.61,3.46-23.51c0.46-8.21,0.71-16.45,0.82-24.68
					c0.05-4,0.03-7.99-0.14-11.99c0,0.01,0,0.01,0,0.02c0-0.01,0-0.01,0-0.02c0,0,0,0,0,0c0,0,0,0,0-0.01
					c-0.16-3.74-0.38-7.47-0.82-11.19c-0.4-3.47-0.8-7.13-1.84-10.48c-3.36,4.29-7.44,7.4-12.77,8.84
					c-5.67,1.54-11.89,1.18-17.3-1.17c-5.03-2.18-9.3-6.04-11.33-11.21c-2.08-5.28-1.15-11.35,2.17-15.92
					c3.72-5.13,9.45-7.7,15.51-8.86c-0.51-0.49-1.55-0.66-2.22-0.87c-0.97-0.32-1.95-0.6-2.94-0.87c-1.97-0.53-3.97-0.96-5.98-1.33
					c-3.81-0.69-7.67-1.13-11.53-1.43c-8.08-0.63-16.23-0.69-24.34-0.43c-16.07,0.51-32.25,1.23-47.98,4.79
					c-14.1,3.19-28.83,8.88-37.61,20.98c-9.25,12.73-9.68,29.34-9.93,44.45c-0.26,15.65,0.08,32.34,5.78,47.13
					C-753.32,1176.08-749.63,1182.01-744.34,1186.44z M-678.93,1078.96C-678.92,1078.95-678.92,1078.95-678.93,1078.96
					c-0.01,0.01-0.01,0.01-0.02,0.02c-7.59,7.6-15.17,15.2-21.47,23.94c-5.99,8.31-10.54,17.52-12.99,27.48
					c-0.62,2.53-1.13,5.1-1.53,7.68c-0.11,0.73-0.21,1.46-0.32,2.18c-0.05,0.33-0.02,1.12-0.23,1.39c-0.35,0.42-0.37,0.09-0.57-0.47
					c-0.23-0.65-0.42-1.32-0.59-1.98c-1.36-5.19-1.59-10.64-0.9-15.95c1.28-9.88,5.79-19.19,12.16-26.78
					c6.81-8.11,16.46-15.58,26.92-18.11C-678.53,1078.64-678.74,1078.77-678.93,1078.96z M-756.75,1121.18
					c0.09-11.79,0.12-24.32,4.66-35.4c9.23-22.51,36.18-27.97,57.85-30.13c6.7-0.67,13.44-1.01,20.17-1.24
					c6.84-0.24,13.78-0.49,20.62-0.07c0.01,0.18-0.07,0.27-0.25,0.28c-0.01,0-0.02,0.01-0.03,0.01c0.02-0.01,0.03-0.01,0.03-0.01
					c-17.81,6.96-34.89,16.88-49.65,29.05c-14.7,12.11-26.42,27.21-35.8,43.72c-2.67,4.71-5.16,9.53-7.46,14.43
					c-2.32,4.92-4.16,9.99-6.3,14.98c-1.99-5.51-2.65-11.72-3.16-17.52C-756.6,1133.25-756.8,1127.22-756.75,1121.18z"/>
				<path id="XMLID_109_" d="M-621.64,1048.4c4.98,0.66,9.92,1.63,14.73,3.09c2.38,0.73,4.75,1.56,7.01,2.6
					c1.99,0.92,3.68,2.25,5.59,3.27c0.26-0.58-1.75-2.23-2.15-2.58c-0.98-0.87-2.06-1.63-3.18-2.31c-2.32-1.41-4.85-2.46-7.44-3.28
					c-10.06-3.19-21-3.85-31.49-3.98c-5.32-0.07-10.62,0.1-15.93,0.41c-2.61,0.16-5.21,0.35-7.81,0.61c-0.8,0.08-7.1,0.38-7.13,1.02
					c5.66-0.34,11.35-0.43,17.02-0.46C-642.13,1046.74-631.83,1047.05-621.64,1048.4z"/>
				<path id="XMLID_110_" d="M-607.27,1061.67c-1.15-0.72-2.36-1.34-3.62-1.81c-0.61-0.23-3.04-1.3-3.55-0.74
					c0.42,0.79,2.23,1.5,2.97,2.04c0.97,0.7,1.9,1.45,2.8,2.24c1.79,1.57,3.44,3.31,4.91,5.19c1.63,2.08,3.03,4.32,4.28,6.64
					c0.6,1.12,1.16,2.27,1.7,3.42c0.37,0.79,0.8,2.6,1.58,3.15c0.02,0.02,0.05,0.04,0.1,0.07c0.38-5.25-2.17-10.98-5.38-15
					C-603.11,1064.83-605.06,1063.05-607.27,1061.67z"/>
				<path id="XMLID_111_" d="M-592.65,1107.15c0,0.03,0,0.07,0,0.11c0,0,0,0,0,0C-592.64,1107.22-592.64,1107.19-592.65,1107.15z"/>
				<path id="XMLID_112_" d="M-592.54,1109.55c0.01,0.15,0.01,0.28,0.02,0.37C-592.53,1109.83-592.54,1109.7-592.54,1109.55z"/>
				<path id="XMLID_113_" d="M-592.65,1107.13C-592.65,1107.02-592.65,1107.01-592.65,1107.13L-592.65,1107.13z"/>
				<polygon id="XMLID_114_" points="-592.64,1107.27 -592.64,1107.27 -592.64,1107.27 				"/>
				<path id="XMLID_115_" d="M-592.64,1107.29c0.02,0.51,0.04,0.93,0.05,1.29C-592.61,1108.08-592.63,1107.58-592.64,1107.29z"/>
				<path id="XMLID_251_" d="M-592.58,1108.69c0.01,0.31,0.03,0.61,0.04,0.86C-592.55,1109.33-592.56,1109.05-592.58,1108.69z"/>
				<path id="XMLID_252_" d="M-654.77,1055.03c0.14-0.05,0.45-0.18,1.03-0.4C-653.91,1054.7-654.53,1054.94-654.77,1055.03z"/>
				<path id="XMLID_253_" d="M-678.97,1079c-0.06,0.06-0.16,0.16-0.27,0.27C-679.16,1079.19-679.07,1079.1-678.97,1079z"/>
				<path id="XMLID_254_" d="M-678.97,1079c0.01-0.01,0.01-0.01,0.02-0.02c0,0,0.01-0.01,0.01-0.01
					C-678.95,1078.98-678.95,1078.98-678.97,1079z"/>
				<path id="XMLID_255_" d="M-573.78,1073.75c0.05,0.13,0.03,0,0.01-0.02c0.08-0.14,0.05-0.26-0.09-0.36
					c-0.01-0.02,0.09,0.27,0.09,0.36C-573.78,1073.73-573.78,1073.73-573.78,1073.75z"/>
				<polygon id="XMLID_256_" points="-563.58,1092.59 -563.58,1092.59 -563.58,1092.59 				"/>
				<path id="XMLID_264_" d="M-551.58,1124.74c0.03-0.09,0.01-0.17-0.08-0.24C-551.64,1124.56-551.71,1124.66-551.58,1124.74z"/>
				<path id="XMLID_265_" d="M-564.57,1088.6C-564.57,1088.6-564.57,1088.59-564.57,1088.6c0,0,0,0,0,0.01
					C-564.57,1088.61-564.57,1088.6-564.57,1088.6z"/>
				<path id="XMLID_266_" d="M-550.45,1125.61c-0.02,0.06-0.14,0.16-0.03,0.21C-550.47,1125.75-550.46,1125.68-550.45,1125.61z"/>
				<path id="XMLID_267_" d="M-564.57,1088.61c0.03,0.12,0.05,0.18,0.05,0.2C-564.52,1088.78-564.54,1088.7-564.57,1088.61z"/>
				<path id="XMLID_268_" d="M-568.67,1181.68c-0.04,0.11-0.08,0.22-0.12,0.33c0.01,0,0.01,0,0.03-0.01
					c0.03-0.02,0.07-0.05,0.11-0.08c0.02-0.02,0.03-0.03,0.05-0.05C-568.59,1181.81-568.61,1181.75-568.67,1181.68z"/>
				<path id="XMLID_269_" d="M-580.37,1153.42c-0.08,0.94-0.39,2.14-0.21,3.08c0.8-0.1,1.41-5.35,1.56-6.17
					c0.42-2.43,0.71-4.87,0.93-7.32c0.42-4.71,0.59-9.44,0.59-14.17c0-4.77-0.2-9.52-0.51-14.28c-0.08-1.27-0.81-13.2-1.64-13.22
					c-0.57,9.2-0.13,18.53-0.15,27.75c-0.01,4.63-0.03,9.25-0.12,13.88c-0.05,2.27-0.12,4.54-0.23,6.81
					C-580.21,1151-580.28,1152.21-580.37,1153.42z"/>
				<path id="XMLID_270_" d="M-580.9,1092.53c0.03-0.04,0.05-0.07,0.07-0.1c0.55-0.86,0.12-2.99,0.06-3.91
					c-0.08-1.26-0.23-2.51-0.43-3.76c-0.4-2.49-1.01-4.94-1.83-7.33c-0.82-2.38-1.82-4.71-3.05-6.91c-0.34-0.62-3.83-6.04-4.26-5.57
					c2.19,4.32,4.23,8.57,5.72,13.2C-583.1,1082.88-582.19,1087.75-580.9,1092.53z"/>
				<path id="XMLID_271_" d="M-588.61,1201.25c0.07-0.11,0.28-0.22,0.26-0.46l0,0C-588.38,1200.96-588.46,1201.11-588.61,1201.25z"
					/>
				<path id="XMLID_272_" d="M-565.61,1085.05c-0.05-0.18-0.11-0.35-0.17-0.53C-565.89,1084.21-565.65,1085.11-565.61,1085.05z"/>
				<path id="XMLID_273_" d="M-564.51,1088.81C-564.51,1088.83-564.51,1088.83-564.51,1088.81L-564.51,1088.81z"/>
				<path id="XMLID_274_" d="M-594.15,1168.92c-0.44,1.67-1.02,3.31-1.75,4.88c-3.09,6.67-8.67,11.72-15.05,15.21
					c-3.55,1.94-7.32,3.44-11.17,4.68c-2.12,0.69-4.27,1.29-6.44,1.84c-1.61,0.41-3.69,0.54-5.17,1.3
					c-0.03,0.01-0.07,0.03-0.12,0.06c0.69,0.32,1.79,0.06,2.52,0.01c1.09-0.07,2.18-0.16,3.27-0.28c2.35-0.26,4.69-0.66,7-1.2
					c4.29-1,8.48-2.49,12.35-4.6c6.49-3.54,11.99-9.03,14.49-16.09c0.64-1.82,1.09-3.71,1.28-5.63c0.1-1.04,0.15-2.1,0.08-3.15
					c-0.02-0.34,0.01-1.87-0.23-2.15c-0.17-0.19-0.45,2.22-0.5,2.57C-593.74,1167.22-593.93,1168.07-594.15,1168.92z"/>
				<path d="M-540.87,1120.72c-0.34-2.78-1.63-5.73-3.85-7.51c-2.72-2.19-6.68-1.46-9.95-1.55c-0.18,0-0.73,0.07-0.9-0.03
					c-0.34-0.21-0.3-0.6-0.35-1.06c-0.09-0.77-0.14-1.55-0.22-2.32c-0.18-1.64-0.37-3.27-0.58-4.91c-0.43-3.28-0.99-6.52-1.58-9.77
					c0.74-0.2,1.63,0.17,2.4,0.09c-0.52-0.91-1.23-1.73-1.87-2.56c-0.64-0.84-1.73-1.79-1.73-2.91c0.76-0.13,1.54,0.02,2.31-0.09
					c0-0.71-1.36-1.9-1.75-2.41c-0.4-0.51-1.78-1.78-1.79-2.46c0.87-0.33,2.38,0,3.31,0.02c0.16-0.62-1.86-2.25-2.27-2.69
					c-0.98-1.05-2-2.06-2.95-3.14c-1.62-1.83-2.4-4.38-3.56-6.51c-2.48-4.54-5.57-8.74-9.23-12.39c-1.82-1.81-3.87-3.35-5.69-5.15
					c-1.82-1.79-3.8-3.41-5.91-4.85c-4.32-2.93-9.14-5.06-14.12-6.6c-10.37-3.21-21.52-4.14-32.33-4.3
					c-11.35-0.17-22.78,0.48-34.1,1.44c-22.34,1.88-45.66,4.73-66.17,14.36c-9.44,4.43-18.17,10.61-24.38,19.08
					c-6.26,8.53-9.45,18.74-10.91,29.13c-1.55,11.02-1.63,22.13-1.28,33.21c0.35,11.28,1.44,22.64,4.6,33.51
					c2.89,9.96,7.65,19.46,15.07,26.82c1.74,1.72,3.51,3.37,5.23,5.12c1.81,1.85,3.81,3.51,5.91,5.01
					c4.35,3.12,9.14,5.58,14.07,7.63c5.08,2.11,10.34,3.77,15.66,5.15c2.75,0.71,5.51,1.34,8.29,1.91c1.34,0.27,2.68,0.54,4.02,0.78
					c0.52,0.09,3.52,0.25,3.73,0.64c0.2,0.37-0.92,1.7-1.06,2.36c-0.29,1.39-0.13,2.94-0.15,4.35c-0.01,0.67-0.03,6.23-0.07,13.19
					h5.83c0.03-5.46,0.04-9.79,0.05-10.2c0.03-1.82-0.24-3.95,0.09-5.73c0.12-0.66-0.19-0.49,0.46-0.73
					c0.34-0.12,1.04,0.1,1.38,0.13c0.9,0.09,1.8,0.16,2.7,0.24c0.9,0.08,1.8,0.16,2.69,0.24c1.04,0.09,1.15,0.07,1.14,1.09
					c-0.02,1.56-0.06,3.75-0.1,6.35c0,0.29-0.01,0.56-0.01,0.82c-0.03,1.92-0.05,4.69-0.07,7.78h4.17
					c0.04-6.59,0.06-12.09,0.08-13.53c0.01-0.48-0.17-1.52,0.06-1.92c0.21-0.35,0.59-0.38,0.82,0c0.19,0.3-0.02,1.38-0.03,1.74
					c-0.01,0.87-0.03,1.74-0.04,2.61c-0.01,0.7-0.02,5.27-0.05,11.1h10c0.02-4.9,0.04-8.89,0.06-9.9c0.01-0.97,0.03-1.94,0.04-2.91
					c0-0.38,0.29-2.4,0.06-2.69c-0.3-0.37-1.98-0.16-2.43-0.17c-0.98-0.01-1.95-0.03-2.93-0.08c3.4-0.17,6.8-0.05,10.19,0.09
					c-1.11-0.02-2.22-0.03-3.33-0.05c1.46,0.12,2.86,0.12,4.32,0.04c1.24-0.06,3.07-0.35,4.28-0.07c0.76,0.18,0.71,0.08,0.72,0.98
					c0.01,0.78-0.02,1.56-0.04,2.33c-0.02,1.55-0.05,3.11-0.07,4.66c-0.01,0.89-0.03,3.92-0.04,7.77h2.58
					c0.04-6.62,0.08-12.49,0.1-14c0.01-0.49-0.17-1.47,0.24-1.74c0.38-0.25,1.32-0.06,1.77-0.07c0.62-0.01,1.25-0.02,1.87-0.03
					c0.91-0.01,1.07-0.14,1.11,0.77c0.03,0.67,0.01,7.36-0.04,15.07h13.03c0.06-7.53,0.09-14.19,0.05-14.98
					c-0.08-1.71-1.18-3.72-2.76-4.57c-1.02-0.55-2.2-0.76-3.34-0.88c-0.42-0.04-3.3-0.12-3.25-0.45c11.49,0.17,23.14-0.58,34.44-2.7
					c10.96-2.06,21.87-5.54,31.21-11.77c8.1-5.41,14.56-12.84,18.75-21.63c4.96-10.4,6.76-21.93,7.84-33.3
					c0.3-3.17,0.58-6.35,0.86-9.52c0.15-1.62,0.29-3.23,0.44-4.85c0.09-0.99-0.14-1.5,0.92-1.52c0.6-0.01,1.19-0.04,1.78-0.19
					C-541.52,1133.42-540.26,1125.73-540.87,1120.72z M-550.19,1114.23c0.92,0.01,0.3,0.32-0.07,0.65c-0.45,0.41-0.81,0.88-1.1,1.41
					c-0.52,0.94-0.36,1.23-1.54,1.23c-0.87,0-1.75-0.03-2.62-0.04c-3.3-0.05-6.73,0.17-10-0.19c1.08-2.4,3.46-3.24,5.9-3.21
					C-556.48,1114.14-553.34,1114.19-550.19,1114.23z M-563.58,1092.59L-563.58,1092.59
					C-563.58,1092.59-563.58,1092.59-563.58,1092.59c0.8,3.6,1.4,7.23,1.89,10.88c0.23,1.75,0.47,3.5,0.65,5.25
					c0.07,0.66,0.48,2.08,0.24,2.7c-0.21,0.54-1.88,1.04-2.44,1.3c-0.51-3.57-0.7-7.15-1.4-10.7c-0.7-3.56-1.7-7.01-2.84-10.45
					c0.68-0.14,1.54,0.12,2.23,0.22C-564.5,1091.89-563.77,1091.74-563.58,1092.59z M-564.57,1088.59
					c-0.01-0.04-0.02-0.08-0.03-0.11C-564.6,1088.5-564.59,1088.54-564.57,1088.59C-564.57,1088.59-564.57,1088.59-564.57,1088.59
					C-564.57,1088.59-564.57,1088.59-564.57,1088.59c0,0.01,0,0.01,0,0.01c0.24,0.9,0.51,1.79,0.64,2.71
					c-1.66-0.75-3.33-1.5-4.99-2.25c-0.73-0.33-1.47-0.66-2.2-0.99c-1.01-0.46-0.76-0.83-0.6-1.84c0.03-0.18,0.07-1.04,0.17-1.12
					c0.15-0.11,0.87,0.06,1.05,0.08c0.85,0.1,1.71,0.25,2.56,0.37c0.52,0.07,2.16,0.03,2.58,0.37
					C-564.88,1086.32-564.73,1087.99-564.57,1088.59z M-566.57,1082.18c0.28,0.77,0.54,1.56,0.79,2.34
					c0.03,0.08,0.08,0.24,0.17,0.53c-0.27,0.35-3.81-1.54-4.38-1.79c-0.74-0.33-2.06-0.62-2.64-1.18c-0.36-0.35-0.62-1.68-0.24-1.98
					c0.35-0.28,1.83,0.17,2.25,0.23c0.87,0.12,1.74,0.23,2.61,0.37C-566.96,1080.87-566.94,1081.16-566.57,1082.18z
					 M-727.25,1207.71c1.19,0.41,2.4,0.8,3.6,1.16c2.32,0.7,4.67,1.34,7.03,1.92c5.06,1.25,10.19,2.28,15.33,3.17
					c4.86,0.84,9.75,1.54,14.64,2.22c0.54,0.07,2.97,0.01,3.31,0.45c0.34,0.44-0.09,0.95-0.32,1.07c-0.32,0.17-1.4-0.15-1.73-0.18
					c-2.69-0.29-5.38-0.59-8.07-0.95c-9.66-1.29-19.33-3.14-28.61-6.17c-8.64-2.82-17.73-6.73-24.05-13.47
					c0.61-0.56,0.91,0.07,1.48,0.53c0.72,0.58,1.46,1.14,2.22,1.66c1.45,1,2.97,1.9,4.53,2.72c3.31,1.73,6.81,3.09,10.37,4.21
					c7.28,2.29,14.85,3.65,22.43,4.49c3.85,0.43,7.71,0.78,11.58,0.98c2,0.11,3.99,0.17,5.99,0.25c0.89,0.03,1.77,0.07,2.66,0.09
					c0.95,0.03,1.81-0.27,1.79,0.87c-0.02,1.33-0.9,0.93-1.98,0.88c-0.97-0.04-1.93-0.08-2.9-0.12c-2.01-0.09-4.03-0.17-6.03-0.33
					c-3.83-0.31-7.66-0.69-11.47-1.19c-4.29-0.56-8.57-1.26-12.79-2.17c-2.15-0.47-4.28-0.99-6.4-1.59c-1.07-0.3-2.14-0.62-3.2-0.97
					c-0.77-0.25-1.87-0.94-2.68-0.81C-729.63,1207.06-728.29,1207.35-727.25,1207.71z M-674.73,1214.98c0-0.03,0-0.08,0-0.14
					c0.01,1.21-0.03,2.41-0.05,3.62c0,0.29,0.14,1.34-0.06,1.55c-0.19,0.2-1.23,0.03-1.46,0.02c-0.94-0.01-1.88-0.02-2.82-0.04
					c-0.22,0-1.26,0.13-1.43-0.04c-0.19-0.18,0.03-1.68,0.03-1.99l0.05-3.64c0-0.32-0.15-1.52,0.03-1.68
					c0.26-0.24,1.22,0.01,1.5,0.03c1,0.08,1.99,0.16,2.99,0.26c0.18,0.02,1.03-0.02,1.2,0.14c0.25,0.23,0.03,1.44,0.04,1.76
					C-674.73,1214.91-674.73,1214.95-674.73,1214.98z M-671.49,1220.09c-0.88-0.01-0.77-0.1-0.8-0.98
					c-0.02-0.73,0.02-1.47,0.03-2.21c0.01-0.66-0.33-3.31,0.1-3.66c1.12-0.92,0.79,2.21,0.78,2.55
					C-671.4,1217.2-671.27,1218.7-671.49,1220.09z M-689.47,1204.42c0.05,0,0.09,0,0.14,0
					C-689.38,1204.42-689.42,1204.42-689.47,1204.42C-689.48,1204.42-689.48,1204.42-689.47,1204.42c-6.4-0.17-12.8-0.48-19.18-0.93
					c-6.22-0.45-12.54-0.88-18.7-1.87c-3.05-0.49-6.09-1.63-9.02-2.58c-2.69-0.87-4.8-2.23-7.01-3.98
					c-4.1-3.25-7.61-7.2-10.42-11.61c-6.39-10.05-9.21-22.06-10.57-33.76c-1.41-12.18-1.47-24.62-0.78-36.85
					c0.67-11.81,2.56-23.98,8.86-34.22c5.97-9.7,15.34-16.47,25.57-21.13c11.1-5.06,23.14-7.98,35.12-10.04
					c12.38-2.13,24.91-3.29,37.44-4.09c12.68-0.82,25.52-1.23,38.19,0.03c6,0.59,12,1.59,17.76,3.41
					c5.41,1.71,10.42,4.08,14.08,8.56c1.73,2.12,3.06,4.55,4.66,6.77c0.24-0.65-0.84-2.42-1.1-3.06c-0.33-0.81-1.33-2.29-1.16-3.14
					c1.42,0.85,2.62,2.41,3.91,3.48c1.43,1.19,2.34,2.14,3.13,3.83c0.84,1.78,1.68,3.57,2.52,5.35c0.4,0.85,0.8,1.7,1.2,2.55
					c0.27,0.57,0.61,1.86,1.14,2.25c0.11-0.58-0.47-1.54-0.67-2.09c-0.31-0.86-0.62-1.71-0.93-2.57c-0.55-1.53-1.15-3.04-1.63-4.59
					c2.43,1.89,4.25,5.2,5.76,7.83c1.41,2.45,3.15,5.2,3.83,7.98c-0.31,0.32-3.87-1.64-4.4-1.88c-0.86-0.39-1.73-0.78-2.59-1.16
					c-0.75-0.34-1.82-0.6-2.41-1.18c-0.5-0.49-0.78-1.48-1.08-2.1c-0.41-0.83-0.81-1.66-1.25-2.48c-0.67-1.27-1.38-2.84-2.41-3.86
					c0.32,1.42,1.23,2.81,1.79,4.15c0.66,1.57,1.26,3.16,1.81,4.77c1.16,3.38,2.14,6.83,2.96,10.32c1.61,6.82,2.63,13.74,3.22,20.72
					c1.2,14.26,0.61,28.63-1.26,42.82c-0.51,3.9-1.07,7.81-1.72,11.69c-0.34,2.01-0.7,4.03-1.08,6.03
					c-0.34,1.83-0.98,3.84-1.01,5.71c0.58-0.26,0.83-2.28,1.02-2.89c0.41-1.36,0.82-2.72,1.21-4.09c0.7-2.45,1.33-4.92,1.9-7.41
					c1.14-4.96,2.06-9.96,2.78-14.99c1.47-10.37,1.94-20.82,1.36-31.28c-0.28-5.12-1.05-10.14-1.82-15.2
					c-0.19-1.24,0.01-2.36,0.2-3.59c0.1-0.66,0.17-1.32,0.29-1.98c0.16-0.88,0.19-0.85,1.13-0.73c0.66,0.09,0.86,0.07,1.14,0.64
					c0.26,0.51,0.34,1.25,0.47,1.8c0.29,1.2,0.54,2.41,0.76,3.63c0.93,5.13,1.3,10.34,1.19,15.55c-0.03,1.45-0.17,2.18-0.82,3.44
					c-0.53,1.02-0.95,2.11-1.23,3.23c-0.53,2.15-0.58,4.43-0.22,6.61c0.21,1.26,0.58,2.48,1.12,3.64c0.55,1.17,0.78,1.94,0.81,3.24
					c0.05,2.89-0.04,5.8-0.23,8.69c-0.19,2.89-0.49,5.77-0.91,8.63c-0.22,1.48-0.47,2.95-0.76,4.41c-0.21,1.07-0.97,2.73-0.73,3.78
					c1.58-3.76,2.32-8.09,3.04-12.08c0.39-2.13,0.7-4.28,0.95-6.43c0.24-2.11,0.25-4.32,0.65-6.4c0.57,0.33,1.12,0.66,1.72,0.92
					c0.92,0.39,0.93,0.32,0.85,1.35c-0.11,1.48-0.32,2.96-0.5,4.43c-0.34,2.8-0.71,5.6-1.15,8.39c-0.88,5.67-1.99,11.34-3.76,16.81
					c-3.23,9.98-9.2,19.04-17.46,25.61c0.7-2.1,1.64-4.12,2.37-6.21c-1.97,1.41-3.27,3.78-5.62,4.78c0.16-0.74,0.93-1.5,1.32-2.14
					c0.53-0.87,1-1.77,1.41-2.7c0.85-1.92,1.41-3.93,1.71-6.01c0.05-0.36,0.4-2.3-0.01-2.27c-0.26,0.02-1.05,2.14-1.19,2.43
					c-0.93,1.87-1.98,3.67-3.18,5.38c-4.82,6.89-11.91,11.49-19.64,14.54c-8.05,3.18-16.88,3.76-25.44,4.44
					c-8.81,0.7-17.62,0.88-26.45,1.11C-668.91,1204.74-679.19,1204.7-689.47,1204.42z M-568.81,1182.04c0,0.25-0.08,0.46-0.24,0.64
					c0,0,0,0,0,0c-2.17,3.97-4.96,7.59-8.26,10.68c-1.56,1.46-3.22,2.79-4.96,4.02c-1.74,1.22-3.66,2.65-5.66,3.39
					c-0.06-0.32,1.82-1.39,2.11-1.6c0.92-0.69,1.82-1.4,2.71-2.13c1.79-1.48,3.53-3.03,5.21-4.64c1.63-1.56,3.21-3.17,4.7-4.86
					c0.74-0.83,1.45-1.68,2.13-2.56C-570.64,1184.41-569.51,1182.16-568.81,1182.04z M-657.14,1214.73
					c-0.02,1.45-0.04,2.9-0.06,4.35c-0.01,0.7,0.14,0.96-0.41,1.24c-0.45,0.23-1.73-0.02-2.25-0.03c-1.3-0.02-2.95,0.24-4.21-0.06
					c-0.63-0.15-0.6-0.03-0.66-0.75c-0.06-0.67,0.02-1.38,0.03-2.06c0.02-1.4,0.04-2.8,0.06-4.2c-1.05-0.02-2.1-0.03-3.15-0.05
					c0-0.16,7.03,0.02,7.79,0.03c0.67,0.01,1.59-0.14,2.24,0.03c0.45-0.18,0.66-0.07,0.63,0.33
					C-657.13,1213.96-657.13,1214.35-657.14,1214.73z M-552.57,1133.2C-552.57,1133.2-552.57,1133.2-552.57,1133.2
					c-2.2,20.63-2.63,43.8-16.64,60.51c-13.44,16.03-35.33,21.41-55.3,23.22c-5.4,0.49-10.82,0.8-16.24,0.87
					c-2.73,0.04-5.45-0.01-8.18-0.03c-0.75-0.01-2.95-0.32-3.24,0.26c-0.23,0.47,0.06,1.26-0.06,1.77
					c-0.17,0.71,0.06,0.42-0.56,0.59c-0.3,0.08-0.75-0.02-1.06-0.02c-0.75-0.01-1.47,0.24-1.7-0.47c-0.17-0.52,0.02-1.48,0.03-2.01
					c0.01-0.67,0.02-1.34,0.03-2.01c0.01-0.57-0.23-1.83,0.04-2.3c0.39-0.69,1.76-0.5,2.6-0.5c1.44,0.01,2.87,0.07,4.31,0.09
					c5.58,0.07,11.16-0.02,16.73-0.34c19.87-1.15,42.58-4.82,57.02-19.85c15.07-15.69,15.04-38.65,17.43-58.9
					c0.06-0.51,0-1.26,0.21-1.72c0.31-0.68,0.69-0.44,1.51-0.33c0.65,0.08,1.29,0.17,1.94,0.25
					C-552.9,1132.39-552.47,1132.28-552.57,1133.2z M-548.2,1129.57c-1.9,0.85-4.55,0.34-6.59,0.31c0.03,0.84,3.65,1.02,3.64,2.17
					c-0.54,0.24-1.81-0.32-2.36-0.44c-0.95-0.21-1.9-0.44-2.86-0.56c-1.91-0.24-3.81,0.27-5.68,0.08c0.13-0.58,0.71-0.79,1.08-1.18
					c-0.52-0.36-1.53-0.37-2.13-0.7c0.11-0.51,6.44-0.08,7.23-0.06c2.63,0.04,5.26,0.05,7.89,0.13
					C-548.06,1129.4-548.13,1129.48-548.2,1129.57z M-544.26,1121.32c0.01-0.16-0.1,0.07-0.02,0.13c-0.48-0.35-0.82-0.89-1.29-1.27
					c-0.64-0.52-1.38-0.91-2.02-1.43c-0.82-0.67-2.04-2.1-1.46-3.25c-0.68,0.41-1.05,1.09-1.23,1.84c0.71-0.68,0.67-0.37,1.08,0.34
					c0.33,0.56,0.8,1.01,1.13,1.56c-0.98,0.31-1.71,0.64-2.58,1.2c-0.1-0.23-0.15-0.46-0.15-0.71c-0.66,0.09-0.5,5.7,0.35,5.86
					c-0.53-1.92,0.17-4.72,2.24-5.5c1.83-0.69,3.63,1.88,3.79,3.48c0.16,1.65-1.11,4.29-2.53,5.19c-0.98,0.62-1.74-0.4-2.65-0.86
					c-0.92-0.47-2.01-0.35-3.01-0.36c-2.57-0.03-5.14-0.07-7.71-0.11c-1.14-0.02-2.28-0.04-3.43-0.05
					c-0.47-0.01-2.49-0.16-1.48-0.81c0.21-0.13,0.96,0.01,1.21,0.01c0.75,0.01,1.5,0.02,2.25,0.03c1.12,0.02,2.25,0.03,3.37,0.05
					c1.31,0.02,2.62,0.04,3.93,0.06c1.1,0.02,2.59,0.33,3.63-0.01c-0.27-1.47-3.11-0.91-4.18-0.92c-1.88-0.03-3.76-0.06-5.65-0.09
					c-0.85-0.01-1.69-0.03-2.54-0.04c-0.59-0.01-2.07,0.22-2.61-0.04c-0.84-0.41-0.9-2.55-0.9-3.44c0-0.3-0.09-1.3,0.17-1.51
					c0.38-0.32,2.08-0.01,2.53-0.01c1.88,0.03,3.77,0.06,5.65,0.09c0.94,0.01,1.88,0.03,2.83,0.04c0.7,0.01,2.24-0.28,2.83,0.05
					c0.54,0.29,0.29,3.64,1.04,3.62c-0.47-2.93-0.88-7.83,2.39-9.49C-546.61,1113.63-543.91,1119.08-544.26,1121.32z"/>
				<path d="M-568.67,1181.94c-0.04,0.03-0.07,0.05-0.1,0.06c-0.02,0.01-0.03,0.02-0.04,0.04c0-0.01,0.01-0.02,0.01-0.03
					c-0.05,0-0.02-0.1,0.12-0.33c0.09,0.07,0.09,0.13,0.06,0.18C-568.63,1181.89-568.64,1181.91-568.67,1181.94
					c0.01-0.02,0.01-0.02,0.01-0.02C-568.66,1181.92-568.67,1181.93-568.67,1181.94z"/>
				<path d="M-587.96,1200.79c-0.06,0.07-0.12,0.09-0.18,0.09C-588.08,1200.87-588.02,1200.84-587.96,1200.79c-0.06,0-0.11,0-0.17,0
					c-0.11,0.01-0.22,0.01-0.23,0c0,0,0,0,0,0c0,0,0,0,0,0c0,0,0,0,0,0h0c0,0,0,0,0,0c0,0,0,0,0,0c0,0,0,0,0,0v0c0,0,0,0,0,0
					c0.08,0,0.15,0,0.23,0c0.11-0.01,0.21-0.02,0.18-0.01C-587.95,1200.78-587.96,1200.78-587.96,1200.79
					C-587.96,1200.79-587.96,1200.79-587.96,1200.79z"/>
				<path d="M-588.64,1201.25c0.15-0.02,0.17-0.46,0.29-0.46c0,0,0,0,0,0l0,0c0.03,0.14-0.02,0.25-0.13,0.33
					C-588.53,1201.27-588.59,1201.31-588.64,1201.25z"/>
				<path d="M-588.62,1201.27C-588.68,1201.24-588.76,1201.15-588.62,1201.27L-588.62,1201.27z"/>
			</g>
		</g>
		<g id="Radio" class="st1">
			
				<text transform="matrix(1 0 0 1 -764.8046 1280.8442)" class="st3" style="font-family:'LHFEgyptian'; font-size:61px; letter-spacing:23;">RADIO</text>
			<g class="st3">
				<defs>
					<rect id="SVGID_1_" x="-775.26" y="1020.69" width="233.25" height="215.67"/>
				</defs>
				<clipPath id="SVGID_2_">
					<use xlink:href="#SVGID_1_"  style="overflow:visible;"/>
				</clipPath>
				<g class="st7">
					<path class="st8" d="M-589.9,1131.96c0-38.99-31.61-70.6-70.6-70.6s-70.6,31.61-70.6,70.6"/>
					<path class="st9" d="M-589.9,1131.96"/>
					<g>
						<line class="st8" x1="-726.21" y1="1085.05" x2="-718.43" y2="1090.8"/>
					</g>
					<path class="st4" d="M-597.29,1148.55c-6.91,28.47-32.56,49.61-63.15,49.61s-56.25-21.14-63.15-49.61h-49.43
						c7.8,55.48,55.46,98.16,113.09,98.16s105.28-42.69,113.09-98.16H-597.29z"/>
					<circle class="st10" cx="-660.15" cy="1132.18" r="102.5"/>
					<circle class="st11" cx="-660.15" cy="1132.18" r="89.54"/>
					<circle class="st10" cx="-660.15" cy="1132.18" r="76.43"/>
					<path class="st8" d="M-589.9,1131.96c0-38.99-31.61-70.6-70.6-70.6s-70.6,31.61-70.6,70.6"/>
					<path class="st9" d="M-589.9,1131.96"/>
					<g>
						<line class="st8" x1="-596.68" y1="1082.54" x2="-604.39" y2="1088.39"/>
						<path class="st8" d="M-724.48,1179.46"/>
					</g>
					<g>
						<line class="st8" x1="-633.66" y1="1056.53" x2="-637.25" y2="1065.52"/>
					</g>
					<g>
						<line class="st8" x1="-668.12" y1="1051.22" x2="-667.14" y2="1060.85"/>
					</g>
					<g>
						<line class="st8" x1="-700.76" y1="1061.6" x2="-695.91" y2="1069.98"/>
					</g>
					<g>
						<line class="st8" x1="-740.78" y1="1131" x2="-731.09" y2="1131"/>
						<line class="st8" x1="-590.07" y1="1131" x2="-579.82" y2="1131"/>
					</g>
					<g>
						<path class="st12" d="M-590.09,1131.96"/>
						<path class="st12" d="M-590.09,1131.96"/>
						<g>
							<line class="st12" x1="-586.34" y1="1124.51" x2="-590.36" y2="1124.86"/>
						</g>
						<g>
							<line class="st12" x1="-587.19" y1="1118.06" x2="-591.16" y2="1118.76"/>
						</g>
						<g>
							<line class="st12" x1="-588.6" y1="1111.71" x2="-592.49" y2="1112.75"/>
						</g>
						<g>
							<line class="st12" x1="-590.56" y1="1105.51" x2="-594.34" y2="1106.89"/>
						</g>
						<g>
							<line class="st12" x1="-593.04" y1="1099.5" x2="-596.7" y2="1101.2"/>
						</g>
						<g>
							<line class="st12" x1="-596.05" y1="1093.73" x2="-599.54" y2="1095.75"/>
						</g>
						<g>
							<line class="st12" x1="-599.54" y1="1088.25" x2="-602.84" y2="1090.56"/>
						</g>
						<g>
							<line class="st12" x1="-603.5" y1="1083.09" x2="-606.59" y2="1085.68"/>
						</g>
						<g>
							<line class="st12" x1="-607.89" y1="1078.29" x2="-610.74" y2="1081.14"/>
						</g>
						<g>
							<line class="st12" x1="-612.69" y1="1073.9" x2="-615.28" y2="1076.99"/>
						</g>
						<g>
							<line class="st12" x1="-617.85" y1="1069.94" x2="-620.16" y2="1073.24"/>
						</g>
						<g>
							<line class="st12" x1="-623.33" y1="1066.45" x2="-625.35" y2="1069.94"/>
						</g>
						<g>
							<line class="st12" x1="-629.1" y1="1063.44" x2="-630.8" y2="1067.1"/>
						</g>
						<g>
							<line class="st12" x1="-635.11" y1="1060.95" x2="-636.49" y2="1064.74"/>
						</g>
						<g>
							<line class="st12" x1="-641.31" y1="1059" x2="-642.35" y2="1062.89"/>
						</g>
						<g>
							<line class="st12" x1="-647.66" y1="1057.59" x2="-648.36" y2="1061.56"/>
						</g>
						<g>
							<line class="st12" x1="-654.11" y1="1056.74" x2="-654.46" y2="1060.76"/>
						</g>
						<g>
							<line class="st12" x1="-734.84" y1="1124.51" x2="-730.82" y2="1124.86"/>
						</g>
						<g>
							<line class="st12" x1="-733.99" y1="1118.06" x2="-730.02" y2="1118.76"/>
						</g>
						<g>
							<line class="st12" x1="-732.58" y1="1111.71" x2="-728.69" y2="1112.75"/>
						</g>
						<g>
							<line class="st12" x1="-730.63" y1="1105.51" x2="-726.84" y2="1106.89"/>
						</g>
						<g>
							<line class="st12" x1="-728.14" y1="1099.5" x2="-724.49" y2="1101.2"/>
						</g>
						<g>
							<line class="st12" x1="-725.14" y1="1093.73" x2="-721.65" y2="1095.75"/>
						</g>
						<g>
							<line class="st12" x1="-717.68" y1="1083.09" x2="-714.6" y2="1085.68"/>
						</g>
						<g>
							<line class="st12" x1="-713.29" y1="1078.29" x2="-710.44" y2="1081.14"/>
						</g>
						<g>
							<line class="st12" x1="-708.5" y1="1073.9" x2="-705.9" y2="1076.99"/>
						</g>
						<g>
							<line class="st12" x1="-703.34" y1="1069.94" x2="-701.02" y2="1073.24"/>
						</g>
						<g>
							<line class="st12" x1="-697.85" y1="1066.45" x2="-695.84" y2="1069.94"/>
						</g>
						<g>
							<line class="st12" x1="-692.08" y1="1063.44" x2="-690.38" y2="1067.1"/>
						</g>
						<g>
							<line class="st12" x1="-686.08" y1="1060.95" x2="-684.7" y2="1064.74"/>
						</g>
						<g>
							<line class="st12" x1="-679.87" y1="1059" x2="-678.83" y2="1062.89"/>
						</g>
						<g>
							<line class="st12" x1="-673.52" y1="1057.59" x2="-672.82" y2="1061.56"/>
						</g>
						<g>
							<line class="st12" x1="-667.08" y1="1056.74" x2="-666.72" y2="1060.76"/>
						</g>
						<g>
							<line class="st12" x1="-660.58" y1="1056.46" x2="-660.58" y2="1060.49"/>
						</g>
					</g>
					<path id="SVGID_x5F_4_x5F_" class="st13" d="M-576.27,1131.4c0,46.51-37.71,84.22-84.22,84.22s-84.22-37.71-84.22-84.22
						c0-46.51,37.71-84.22,84.22-84.22S-576.27,1084.88-576.27,1131.4z"/>
					<text>					<textPath  xlink:href="#SVGID_x5F_4_x5F_" startOffset="-1934.6963%">
<tspan  class="st4" style="font-family:'Airship27'; font-size:24.8708px; letter-spacing:20;">53  60 70 80 100 120 160</tspan>					</textPath>
</text>
					<circle class="st4" cx="-659.93" cy="1132.34" r="18.28"/>
					<g>
						<path class="st4" d="M-721.69,1066.71l-0.73,0.7l-0.43,0.41l0.27-0.26l-0.43,0.41l-0.73,0.7c0,0,43.93,45.59,53.68,73.27
							c18.23,7.08,24.76,9.71,24.76,9.71l0.73-0.7l0.43-0.41l0.55-0.52l0.43-0.41l0.73-0.7c0,0-2.32-6.65-8.55-25.18
							C-678.18,1112.69-721.69,1066.71-721.69,1066.71z"/>
					</g>
					<path class="st5" d="M-698.02,1092.33c1.18,1.18,39.89,38,39.89,38l8.02,6.84c0,0,1.89-12.04-2.12-12.27
						c-4.01-0.24,0.71,7.06-10.15-1.42C-670.3,1117.31-698.02,1092.33-698.02,1092.33z"/>
					
						<ellipse transform="matrix(0.3097 -0.9508 0.9508 0.3097 -1516.6582 148.8138)" class="st5" cx="-655.83" cy="1118.99" rx="1.7" ry="3.82"/>
					<circle class="st4" cx="-659.93" cy="1219.58" r="33.08"/>
					<circle class="st5" cx="-659.93" cy="1219.58" r="25.14"/>
					<g>
						<path class="st4" d="M-647.76,1207.38v23.78l-1.22,1.19h-22.6v-26.15h22.6L-647.76,1207.38z M-650.17,1229.94v-21.35h-19.01
							v21.35H-650.17z"/>
						<path class="st4" d="M-651.88,1211.22v9.8l-0.62,0.59h-11.01v7.21h-2.4v-18.19h13.41L-651.88,1211.22z M-654.29,1213.03h-9.23
							v6.18h9.23V1213.03z"/>
						<g>
							<path class="st4" d="M-658.74,1237.52h-2.4v-36.39h2.4V1237.52z"/>
							<path class="st4" d="M-665.45,1204.99h-2.4v-5.57h2.4V1204.99z"/>
							<path class="st4" d="M-652.26,1204.99h-2.4v-5.57h2.4V1204.99z"/>
							<path class="st4" d="M-667.71,1203.46v-2.4h15.3v2.4H-667.71z"/>
							<path class="st4" d="M-665.45,1239.04h-2.4v-5.57h2.4V1239.04z"/>
							<path class="st4" d="M-652.26,1239.04h-2.4v-5.57h2.4V1239.04z"/>
							<path class="st4" d="M-667.71,1237.51v-2.4h15.3v2.4H-667.71z"/>
						</g>
						<path class="st4" d="M-667.98,1229v-2.4h6.43v2.4H-667.98z"/>
						<path class="st4" d="M-667.98,1212.9v-2.27h6.43v2.27H-667.98z"/>
						<path class="st4" d="M-673.57,1208.46v-2.27h6.43v2.27H-673.57z"/>
						<path class="st4" d="M-673.57,1232.32v-2.27h6.43v2.27H-673.57z"/>
						<path class="st4" d="M-667.98,1221.42v-2.27h6.43v2.27H-667.98z"/>
					</g>
					<g>
						<path class="st13" d="M-621.11,1249.08"/>
					</g>
				</g>
			</g>
		</g>
	</g>
</g>
<path class="st5" d="M426.75,234.95v-36.69l-22.46-12.57c-2.04-12.51-5.31-24.61-9.66-36.19l13.14-22.08l-18.35-31.78l-25.63,0.34
	c-7.96-9.75-16.86-18.71-26.57-26.73l0.34-25.47l-31.78-18.35l-21.55,12.83c-11.86-4.57-24.29-7.98-37.14-10.11L234.95,6.46h-36.69
	l-11.97,21.39c-13.14,2.05-25.84,5.44-37.96,10.03l-20.9-12.44L95.65,43.79l0.32,24.14c-10.34,8.35-19.79,17.74-28.19,28.03
	l-23.99-0.32l-18.35,31.78l12.13,20.38c-4.81,12.4-8.35,25.43-10.48,38.92L6.46,198.26v36.69l20.63,11.55
	c2.13,13.49,5.68,26.51,10.48,38.92l-12.13,20.38l18.35,31.78l23.99-0.32c8.4,10.29,17.86,19.69,28.19,28.03l-0.32,24.14
	l31.78,18.35l20.9-12.44c12.12,4.59,24.82,7.99,37.96,10.03l11.97,21.39h36.69l12.14-21.69c12.86-2.13,25.28-5.55,37.14-10.11
	l21.55,12.83l31.78-18.35l-0.34-25.47c9.71-8.02,18.61-16.98,26.57-26.73l25.63,0.34l18.35-31.78l-13.14-22.08
	c4.36-11.57,7.62-23.68,9.66-36.19L426.75,234.95z M215.78,375.1c-87.39,0-158.5-71.1-158.5-158.5s71.1-158.5,158.5-158.5
	c87.4,0,158.5,71.1,158.5,158.5S303.17,375.1,215.78,375.1z"/>
<g>
	<defs>
		<circle id="SVGID_3_" cx="215.61" cy="216.59" r="145.96"/>
	</defs>
	<clipPath id="SVGID_5_">
		<use xlink:href="#SVGID_3_"  style="overflow:visible;"/>
	</clipPath>
	<g style="clip-path:url(#SVGID_5_);">
		<path class="st5" d="M157.57,315.75c0,0.96,0.84,2.03,1.84,2.45c28.58,12.09,76.11,11.43,76.11,10.48v-0.16
			c-0.1,0.02-0.21,0.04-0.31,0.05c-2.82,0.13-5.64,0.2-8.46,0.21l0.09-3.5c2.66-0.1,5.24-0.36,7.65-0.82l0.33,0.17v-4.98l-1.59,3.84
			c-2.03,0.37-4.17,0.61-6.36,0.75l0.13-4.97l-0.32-0.16l0.32,0.02l0-0.14c2.63-0.07,5.17-0.27,7.58-0.63l-0.26-0.3l0.49,0.26v-4.98
			l-1.65,3.99c-1.97,0.28-4.02,0.46-6.13,0.56l0.14-4.99l-0.29-0.15l0.29,0.02l0-0.07c2.55-0.1,5.03-0.32,7.4-0.69l0.24,0.13v-4.98
			l-1.35,3.25c-2.02,0.31-4.11,0.53-6.25,0.67l0.13-4.83l-0.62-0.32l0.63,0.04l0-0.06c2.44-0.06,4.83-0.22,7.13-0.49l-0.25-0.22
			l0.58,0.3v-4.98l-1.57,3.79l-0.08-0.07c-1.88,0.22-3.81,0.37-5.78,0.46l0.12-4.33l-0.58-0.3l0.59,0.04l0-0.02
			c2.39-0.07,4.72-0.23,6.97-0.49l-0.25-0.22l0.58,0.3v-4.98l-1.57,3.79l-0.08-0.07c-1.83,0.21-3.7,0.36-5.62,0.45l0.12-4.5
			l-0.49-0.25l0.5,0.04l0-0.1c2.33-0.07,4.61-0.23,6.8-0.48l-0.25-0.22l0.58,0.3v-4.98l-1.57,3.79l-0.08-0.07
			c-1.78,0.21-3.6,0.35-5.45,0.45l0.11-3.95l-0.69-0.35l0.7,0.05l0-0.08c2.28-0.07,4.5-0.23,6.65-0.48l-0.25-0.22l0.58,0.3v-4.98
			l-1.57,3.79l-0.08-0.07c-1.73,0.2-3.5,0.35-5.3,0.44l0.03-1.12l-2.24-1.76l0.07,2.96c-1.97,0.06-3.96,0.05-5.98,0l0.03-1.21
			l-2.24-1.76l0.07,2.89c-1.89-0.08-3.8-0.2-5.7-0.36l0.03-1.18l-2.24-1.76l0.06,2.75c-1.87-0.18-3.73-0.39-5.59-0.63l0.03-1.05
			l-2.24-1.76l0.06,2.52c-1.87-0.26-3.72-0.54-5.55-0.85l0.05-1.67l-2.24-1.76l0.07,3.06c-1.96-0.34-3.88-0.71-5.76-1.08l0.05-1.81
			l-2.24-1.76l0.07,3.13c-1.87-0.39-3.69-0.79-5.44-1.19l0.07-2.11l-2.24-1.76l0.1,3.38c-1.97-0.47-3.85-0.93-5.6-1.38l0.08-2.27
			l-2.24-1.76l0.11,3.49c-1.85-0.49-3.53-0.95-5.03-1.38l0.11-2.84l-2.24-1.76l0.16,4.03c-1.83-0.53-3.25-0.97-4.18-1.26
			C160.1,276.26,157.57,302.75,157.57,315.75z M226.69,328.77c-2.69,0.01-5.38-0.04-8.07-0.14l0.09-3.46
			c2.65,0.16,5.31,0.21,7.9,0.12L226.69,328.77z M226.59,324.26c-2.57,0.15-5.21,0.17-7.85,0.08l0.14-5.33l-0.26-0.13l0.26,0.02
			l0-0.06c2.55,0.15,5.1,0.21,7.58,0.16L226.59,324.26z M219.71,288.57l0-0.07c2.04,0.09,4.05,0.13,6.04,0.11l0.1,4.36
			c-2.06,0.06-4.15,0.06-6.26,0l0.11-4.05l-0.83-0.42L219.71,288.57z M219.56,294.13l0-0.1c2.13,0.1,4.24,0.14,6.32,0.12l0.11,4.83
			c-2.15,0.07-4.35,0.06-6.57,0l0.12-4.53l-0.73-0.37L219.56,294.13z M219.39,300.11l0-0.07c2.24,0.11,4.45,0.15,6.62,0.12
			l0.11,4.63c-2.25,0.07-4.54,0.07-6.86,0l0.12-4.41l-0.62-0.32L219.39,300.11z M219.24,305.91l0-0.07
			c2.34,0.11,4.65,0.16,6.92,0.13l0.12,5.2c-2.35,0.12-4.76,0.15-7.19,0.11l0.14-5.09l-0.61-0.31L219.24,305.91z M219.05,312.75
			l0-0.07c2.46,0.11,4.89,0.14,7.26,0.07l0.12,5.18c-2.46,0.1-4.99,0.1-7.53,0.01l0.13-4.97l-0.47-0.24L219.05,312.75z
			 M218.47,324.34c-2.56-0.09-5.11-0.27-7.57-0.51l0.15-5.67c2.4,0.28,4.85,0.51,7.29,0.66L218.47,324.34z M211.86,287.97l0-0.05
			c1.92,0.19,3.84,0.35,5.75,0.47l0.11,4.52c-1.98-0.08-3.98-0.21-5.98-0.38l0.12-4.28l-0.47-0.47L211.86,287.97z M211.71,293.52
			l0-0.08c2.02,0.21,4.03,0.37,6.03,0.49l0.12,4.99c-2.08-0.08-4.18-0.22-6.29-0.4l0.13-4.75l-0.42-0.42L211.71,293.52z
			 M211.55,299.54l0-0.1c2.12,0.22,4.24,0.39,6.34,0.52l0.11,4.79c-2.18-0.09-4.38-0.23-6.58-0.42l0.12-4.48l-0.5-0.51
			L211.55,299.54z M211.4,305.27l0-0.04c2.22,0.23,4.44,0.41,6.63,0.54l0.13,5.47c-2.3-0.06-4.61-0.19-6.91-0.38l0.14-5.32
			l-0.45-0.46L211.4,305.27z M211.21,312.16l0-0.09c2.33,0.25,4.66,0.44,6.98,0.57l0.12,5.28c-2.43-0.1-4.86-0.27-7.25-0.49
			l0.14-5.07l-0.31-0.32L211.21,312.16z M210.88,324.44c2.48,0.31,5.04,0.56,7.61,0.72l0.08,3.47c-2.6-0.1-5.2-0.26-7.79-0.47
			L210.88,324.44z M204.13,287.03l0-0.07c1.87,0.27,3.75,0.52,5.63,0.73l0.11,4.67c-1.96-0.19-3.92-0.41-5.87-0.66l0.12-4.28
			l-0.64-0.65L204.13,287.03z M203.99,292.5l0-0.02c1.96,0.29,3.93,0.55,5.91,0.77l0.12,5.14c-2.06-0.19-4.12-0.43-6.17-0.69
			l0.13-4.89l-0.49-0.5L203.99,292.5z M203.82,298.47L203.82,298.47c2.06,0.3,4.14,0.57,6.21,0.8l0.12,4.94
			c-2.16-0.2-4.32-0.45-6.47-0.73l0.13-4.66l-0.58-0.59L203.82,298.47z M203.67,304.3l0-0.05c2.16,0.32,4.33,0.61,6.51,0.85
			l0.13,5.69c-2.29-0.2-4.56-0.45-6.8-0.73l0.15-5.49l-0.42-0.43L203.67,304.3z M203.48,311.06L203.48,311.06
			c2.26,0.34,4.55,0.66,6.86,0.92l0.13,5.4c-2.44-0.23-4.84-0.52-7.13-0.84l0.14-5.29l-0.29-0.3L203.48,311.06z M203.32,317.07
			c2.3,0.37,4.71,0.72,7.16,1.02l0.14,5.71c-2.61-0.26-5.12-0.58-7.45-0.93L203.32,317.07z M203.15,323.27
			c2.34,0.41,4.86,0.81,7.48,1.14l0.09,3.75c-2.56-0.21-5.12-0.47-7.68-0.78L203.15,323.27z M202.57,309.93
			c-2.31-0.31-4.57-0.65-6.77-1.02l0.16-5.77l-0.33-0.33l0.45,0.17c2.09,0.39,4.21,0.75,6.36,1.08L202.57,309.93z M196.43,285.72
			l0-0.03c1.84,0.34,3.71,0.66,5.59,0.95l0.11,4.82c-1.97-0.27-3.91-0.57-5.84-0.89l0.12-4.36l-0.79-0.8L196.43,285.72z
			 M196.28,291.21L196.28,291.21c1.93,0.35,3.89,0.69,5.87,0.99l0.13,5.29c-2.07-0.28-4.12-0.6-6.14-0.94l0.13-4.92l-0.69-0.7
			L196.28,291.21z M196.12,297.26l0-0.08c2.03,0.38,4.09,0.73,6.18,1.05l0.12,5.08c-2.17-0.3-4.32-0.63-6.43-0.98l0.13-4.74
			l-0.53-0.54L196.12,297.26z M195.78,309.76l0-0.07c2.21,0.43,4.49,0.85,6.81,1.22l0.13,5.54c-2.51-0.35-4.9-0.74-7.1-1.13
			l0.15-5.41l-0.24-0.25L195.78,309.76z M195.62,315.66c2.2,0.44,4.6,0.89,7.12,1.31l0.14,5.85c-2.79-0.42-5.32-0.87-7.42-1.28
			L195.62,315.66z M195.45,321.73c2.1,0.47,4.63,0.99,7.43,1.49l0.1,4.15c-2.56-0.31-5.11-0.68-7.65-1.1L195.45,321.73z
			 M195.04,315.22c-2.83-0.51-5.31-1.01-7.3-1.43l0.15-5.54l-0.32-0.32l0.32,0.13l0-0.05c2.22,0.52,4.57,1.03,7.01,1.52
			L195.04,315.22z M194.73,302.12c-2.27-0.39-4.49-0.81-6.64-1.25l0.13-4.98l-0.5-0.5l0.51,0.2c2.07,0.45,4.2,0.89,6.37,1.31
			L194.73,302.12z M188.54,284.16l0-0.05c1.89,0.41,3.82,0.81,5.79,1.19l0.12,4.96c-2.06-0.36-4.08-0.74-6.04-1.13l0.12-4.55
			l-0.65-0.66L188.54,284.16z M188.4,289.62L188.4,289.62c1.98,0.42,4,0.84,6.07,1.24l0.13,5.43c-2.16-0.38-4.28-0.78-6.35-1.19
			l0.14-5.04l-0.71-0.72L188.4,289.62z M188.08,301.43l0-0.06c2.16,0.47,4.39,0.93,6.67,1.37l0.14,6.02
			c-2.43-0.42-4.77-0.86-6.98-1.31l0.15-5.68l-0.54-0.55L188.08,301.43z M187.74,313.92c1.99,0.48,4.48,1.05,7.31,1.63l0.14,5.94
			c-3.76-0.74-6.09-1.32-6.09-1.32s2.34,0.66,6.1,1.5l0.11,4.59c-2.63-0.44-5.25-0.93-7.86-1.48L187.74,313.92z M187.01,307.26
			c-2.46-0.51-4.74-1.03-6.8-1.51l0.2-6l-0.24-0.24l0.24,0.09l0-0.03c2.06,0.51,4.22,1.02,6.45,1.52L187.01,307.26z M186.85,300.62
			c-2.22-0.46-4.38-0.93-6.43-1.41l0.17-5.14l-0.43-0.43l0.43,0.17l0,0c1.96,0.48,4.01,0.97,6.12,1.44L186.85,300.62z
			 M180.98,282.39l0-0.04c1.76,0.43,3.58,0.86,5.46,1.29l0.12,5.1c-1.98-0.41-3.91-0.83-5.76-1.26l0.15-4.5l-0.95-0.97
			L180.98,282.39z M180.8,287.86L180.8,287.86c1.85,0.45,3.79,0.91,5.78,1.36l0.13,5.57c-2.11-0.44-4.15-0.88-6.1-1.33l0.17-5.12
			l-0.77-0.79L180.8,287.86z M173.31,280.44l0-0.08c1.76,0.48,3.64,0.98,5.62,1.48l0.15,5.24c-2.11-0.5-4.11-0.99-5.97-1.47
			l0.17-4.69l-0.79-0.8L173.31,280.44z M173.11,285.86l0-0.01c1.86,0.51,3.87,1.04,5.98,1.58l0.17,5.71
			c-2.26-0.53-4.39-1.06-6.36-1.57l0.19-5.25l-0.74-0.76L173.11,285.86z M172.88,291.89l0-0.09c1.98,0.54,4.11,1.11,6.38,1.68
			l0.16,5.5c-2.4-0.56-4.66-1.13-6.74-1.67l0.19-5.07l-0.58-0.58L172.88,291.89z M172.67,297.67l0-0.12
			c2.08,0.58,4.35,1.18,6.76,1.79l0.18,6.27c-2.95-0.71-5.4-1.35-7.17-1.84l0.22-5.87l-0.37-0.37L172.67,297.67z M171.64,291.24
			c-2.19-0.58-4.15-1.12-5.85-1.61l0.22-5.51l-0.45-0.46l0.46,0.18l0-0.04c1.59,0.48,3.42,1.02,5.43,1.58L171.64,291.24z
			 M166.86,278.51c1.34,0.4,2.82,0.83,4.42,1.28l0.17,5.38c-2.01-0.53-3.83-1.03-5.42-1.49l0.19-4.87l-0.81-0.87L166.86,278.51z
			 M165.78,289.84l0-0.1c1.7,0.51,3.67,1.09,5.86,1.71l0.18,5.64c-2.36-0.62-4.47-1.2-6.27-1.72l0.21-5.28l-0.42-0.42L165.78,289.84
			z M165.28,302.5l0.27-6.81l-0.2-0.2l0.2,0.08l0-0.08c1.8,0.55,3.91,1.17,6.28,1.83l0.2,6.34c-1.79-0.5-2.8-0.8-2.8-0.8
			s1.01,0.34,2.8,0.89l0.19,5.86l0.2-5.51l-0.19-0.19l0.19,0.08l0-0.12c1.78,0.54,4.23,1.26,7.19,2.06l0.26,9.15l0.3-8.91
			l-0.18-0.18l0.3,0.12c2.03,0.54,4.28,1.11,6.7,1.69l0.14,5.87c-2.83-0.62-4.51-1.04-4.51-1.04s1.68,0.47,4.51,1.17l0.26,10.99
			c-8.63-1.82-17.15-4.27-25.48-7.39c-1.01-0.35-1.84-1.44-1.84-2.39c0-7.08,0-14.16,0-21.23c1.04,0.35,2.71,0.89,4.89,1.55
			L165.28,302.5z M164.99,295.21c-2.17-0.63-3.84-1.14-4.89-1.47c0-1.93,0-3.86,0-5.79c1.01,0.33,2.59,0.85,4.65,1.48L164.99,295.21
			z M164.75,289.33c-2.06-0.6-3.64-1.08-4.65-1.4c0-2,0-3.99,0-5.99c0.97,0.32,2.47,0.81,4.41,1.4L164.75,289.33z M164.28,277.73
			l0.22,5.51c-1.94-0.56-3.44-1.03-4.4-1.33c0-1.84,0-3.68,0-5.52C161.03,276.71,162.45,277.17,164.28,277.73z"/>
		<path class="st5" d="M149.9,264.09c0,0-0.01,0.01-0.04,0.03c-0.01,0.01-0.03,0.04-0.04,0.07c-0.01,0.03-0.03,0.06-0.04,0.1
			c-0.04,0.15-0.01,0.37,0.08,0.58c0.09,0.21,0.25,0.43,0.44,0.63c0.19,0.2,0.43,0.37,0.69,0.51c0.13,0.07,0.26,0.13,0.39,0.18
			c0.13,0.05,0.26,0.1,0.39,0.13c0.26,0.07,0.51,0.1,0.72,0.11c0.21,0.01,0.39-0.01,0.51-0.02c0.12-0.02,0.19-0.03,0.19-0.03
			l0.01-0.14c0,0-0.06-0.03-0.17-0.07c-0.11-0.04-0.26-0.1-0.45-0.17c-0.09-0.04-0.19-0.07-0.29-0.12c-0.1-0.04-0.21-0.09-0.31-0.14
			c-0.11-0.05-0.22-0.1-0.33-0.15c-0.11-0.06-0.22-0.11-0.33-0.17c-0.43-0.24-0.82-0.53-1.06-0.78c-0.06-0.06-0.11-0.12-0.15-0.18
			c-0.03-0.06-0.06-0.11-0.08-0.15c-0.01-0.02-0.01-0.04-0.01-0.05c0-0.01-0.01-0.02-0.01-0.04c0.01-0.03,0.01-0.05,0.01-0.05
			L149.9,264.09z"/>
		<path class="st5" d="M152.82,284.36c0.04,1.07,0.1,2.08,0.16,2.94c0.07,0.86,0.14,1.58,0.2,2.08c0.03,0.25,0.06,0.45,0.08,0.58
			c0.02,0.13,0.03,0.21,0.03,0.21h0.1c0,0,0.01-0.07,0.03-0.21c0.02-0.13,0.05-0.33,0.07-0.58c0.06-0.5,0.13-1.22,0.2-2.08
			c0.07-0.86,0.13-1.86,0.16-2.94c0.02-0.54,0.04-1.09,0.05-1.66c0.01-0.56,0.01-1.14,0.02-1.71c0-0.57,0-1.15-0.02-1.71
			c-0.01-0.56-0.03-1.12-0.04-1.66c-0.04-1.07-0.1-2.08-0.16-2.94c-0.07-0.86-0.14-1.58-0.2-2.08c-0.03-0.25-0.06-0.45-0.08-0.58
			c-0.02-0.13-0.03-0.21-0.03-0.21h-0.1c0,0-0.01,0.07-0.03,0.21c-0.02,0.13-0.05,0.33-0.08,0.58c-0.06,0.5-0.14,1.22-0.2,2.08
			c-0.07,0.86-0.13,1.86-0.16,2.94c-0.02,0.54-0.04,1.09-0.04,1.66c-0.01,0.56-0.01,1.14-0.02,1.71c0,0.57,0.01,1.15,0.02,1.71
			C152.79,283.26,152.8,283.82,152.82,284.36z"/>
		<path class="st5" d="M233.38,271.4c0.1,0.02,0.2,0.03,0.31,0.04c0.16,0.02,0.32,0.04,0.48,0.05c0.16,0.01,0.32,0.01,0.48,0.02
			l0.24,0.01c0.08,0,0.16,0,0.24-0.01c0.16-0.01,0.32-0.01,0.48-0.02c0.16,0,0.32-0.02,0.47-0.04c0.16-0.02,0.31-0.04,0.46-0.05
			c0.15-0.01,0.3-0.05,0.44-0.08c0.14-0.03,0.29-0.06,0.42-0.09c0.28-0.05,0.53-0.14,0.77-0.2c0.12-0.04,0.23-0.07,0.34-0.1
			c0.05-0.02,0.11-0.03,0.16-0.05c0.05-0.02,0.1-0.04,0.14-0.06c0.19-0.07,0.35-0.14,0.48-0.19c0.27-0.11,0.42-0.17,0.42-0.17
			c0.02-0.01,0.04-0.02,0.07-0.03c0.31-0.17,0.42-0.55,0.26-0.86c-0.09-0.16-0.23-0.26-0.39-0.31v-3.47
			c-1.1,0.79-3.26,1.33-5.75,1.33c-0.36,0,1.28,0.59,1.2,1.58c-0.05,0.64-0.99,1.57-1.64,2.15c-0.21-0.01-0.42-0.02-0.63-0.04
			c-0.14-0.01-0.28-0.03-0.42-0.05c-0.14-0.02-0.27-0.03-0.4-0.06c-0.26-0.05-0.51-0.09-0.73-0.15c-0.23-0.05-0.43-0.11-0.61-0.17
			c-0.18-0.06-0.34-0.11-0.46-0.16c-0.13-0.05-0.23-0.09-0.29-0.12c-0.07-0.03-0.1-0.05-0.1-0.05c-0.03-0.01-0.06,0-0.07,0.02
			c-0.02,0.03-0.01,0.06,0.02,0.08l0,0c0,0,0.03,0.02,0.1,0.06c0.06,0.04,0.16,0.09,0.28,0.15c0.12,0.06,0.27,0.14,0.45,0.21
			c0.18,0.08,0.38,0.16,0.6,0.24c0.22,0.09,0.47,0.16,0.73,0.24c0.13,0.04,0.27,0.07,0.41,0.11c0.14,0.03,0.28,0.08,0.43,0.1
			c0.05,0.01,0.1,0.02,0.15,0.03c-0.04,0.03-0.07,0.05-0.07,0.05C233.03,271.38,233.21,271.39,233.38,271.4z"/>
		<path class="st5" d="M167.39,273.26c0.66,0.23,1.37,0.45,2.11,0.69c-0.74-0.25-1.44-0.48-2.11-0.7c-1.35-0.46-2.52-0.88-3.48-1.23
			c-0.96-0.35-1.71-0.65-2.22-0.85c-0.51-0.21-0.78-0.31-0.78-0.31l-0.05,0.13c0,0,0.27,0.1,0.79,0.29
			c0.52,0.19,1.28,0.45,2.24,0.79C164.87,272.41,166.04,272.81,167.39,273.26z"/>
		<path class="st5" d="M169.56,273.97c-0.02-0.01-0.04-0.01-0.05-0.02C169.52,273.96,169.54,273.96,169.56,273.97L169.56,273.97z"/>
		<path class="st5" d="M153.23,314.86c0.08,0.24,0.2,0.6,0.41,1.05c0.1,0.23,0.22,0.47,0.36,0.74c0.07,0.13,0.15,0.27,0.23,0.42
			c0.04,0.07,0.08,0.15,0.12,0.22c0.05,0.07,0.09,0.15,0.14,0.22c0.37,0.61,0.86,1.28,1.46,1.97c0.6,0.7,1.34,1.4,2.22,2.09
			c0.11,0.08,0.22,0.17,0.33,0.26c0.11,0.08,0.22,0.18,0.34,0.26c0.24,0.16,0.49,0.32,0.73,0.49c0.06,0.04,0.12,0.08,0.19,0.12
			c0.07,0.04,0.13,0.07,0.2,0.11c0.13,0.07,0.26,0.15,0.4,0.23c0.28,0.14,0.56,0.29,0.85,0.42c1.16,0.55,2.43,1.05,3.77,1.55
			c0.67,0.26,1.37,0.49,2.08,0.75c0.71,0.24,1.44,0.49,2.19,0.73c1.5,0.49,3.07,0.95,4.7,1.43c1.63,0.46,3.33,0.92,5.08,1.36
			c3.5,0.89,7.21,1.73,11.08,2.48c3.87,0.75,7.89,1.4,11.99,1.93c4.1,0.53,8.29,0.94,12.48,1.18c4.2,0.24,8.4,0.33,12.54,0.19
			c0.52-0.02,1.03-0.04,1.55-0.06c0.26-0.01,0.51-0.02,0.77-0.03l0.19-0.01l0.2-0.01l0.38-0.03c1.02-0.07,2.04-0.13,3.05-0.2
			c2.02-0.11,4.02-0.33,5.98-0.51c0.49-0.05,0.98-0.1,1.46-0.14c0.48-0.06,0.97-0.12,1.45-0.18c0.96-0.12,1.91-0.24,2.85-0.36
			c0.24-0.03,0.47-0.06,0.7-0.09c0.23-0.04,0.47-0.07,0.7-0.11c0.46-0.07,0.92-0.14,1.38-0.21c0.92-0.14,1.82-0.28,2.71-0.42
			c0.89-0.16,1.76-0.32,2.63-0.48c0.86-0.16,1.71-0.3,2.54-0.49c1.66-0.35,3.27-0.67,4.8-1.05c0.77-0.18,1.52-0.36,2.25-0.53
			c0.73-0.19,1.44-0.38,2.14-0.56c0.35-0.09,0.69-0.18,1.03-0.27c0.34-0.09,0.67-0.19,0.99-0.28c0.65-0.19,1.29-0.37,1.9-0.55
			c0.31-0.09,0.61-0.18,0.9-0.28c0.3-0.09,0.59-0.18,0.87-0.27c0.29-0.09,0.57-0.18,0.84-0.26c0.14-0.04,0.27-0.09,0.41-0.13
			c0.13-0.04,0.27-0.09,0.4-0.13c1.05-0.35,2.02-0.67,2.88-0.99c1.73-0.61,3.07-1.15,3.99-1.51c0.91-0.37,1.4-0.56,1.4-0.56
			l-0.04-0.11c0,0-0.5,0.18-1.42,0.53c-0.46,0.17-1.03,0.39-1.7,0.63c-0.34,0.12-0.7,0.25-1.08,0.39c-0.38,0.14-0.8,0.27-1.23,0.42
			c-0.87,0.3-1.84,0.6-2.89,0.94c-0.13,0.04-0.26,0.08-0.4,0.13c-0.13,0.04-0.27,0.08-0.41,0.12c-0.28,0.08-0.56,0.17-0.84,0.25
			c-0.29,0.08-0.58,0.17-0.87,0.26c-0.3,0.09-0.6,0.18-0.91,0.26c-0.62,0.17-1.25,0.34-1.91,0.52c-0.33,0.09-0.66,0.18-1,0.27
			c-0.34,0.09-0.68,0.17-1.03,0.26c-0.69,0.17-1.41,0.35-2.14,0.54c-0.73,0.17-1.48,0.34-2.25,0.51c-1.53,0.36-3.14,0.67-4.8,1
			c-0.83,0.18-1.68,0.31-2.54,0.46c-0.86,0.15-1.74,0.3-2.62,0.46c-0.89,0.13-1.79,0.27-2.71,0.4c-0.46,0.07-0.92,0.14-1.38,0.2
			c-0.23,0.03-0.46,0.07-0.7,0.1c-0.23,0.03-0.47,0.06-0.7,0.09c-0.94,0.11-1.89,0.23-2.84,0.34c-0.48,0.06-0.96,0.12-1.44,0.17
			c-0.48,0.05-0.97,0.09-1.46,0.14c-1.96,0.17-3.94,0.39-5.96,0.5c-1.01,0.07-2.03,0.13-3.05,0.2l-0.38,0.03l-0.19,0.01l-0.19,0.01
			c-0.26,0.01-0.51,0.02-0.77,0.03c-0.51,0.02-1.03,0.04-1.54,0.06l-0.39,0.02l-0.39,0.01c-0.26,0-0.52,0.01-0.77,0.01
			c-0.52,0.01-1.04,0.02-1.55,0.03c-1.04,0.01-2.08,0-3.12,0c-1.04-0.02-2.09-0.05-3.13-0.07c-0.52-0.02-1.05-0.04-1.57-0.07
			l-0.78-0.03c-0.26-0.01-0.52-0.02-0.78-0.04c-4.18-0.23-8.36-0.62-12.45-1.13c-4.09-0.51-8.1-1.16-11.97-1.88
			c-3.86-0.72-7.58-1.53-11.08-2.38c-1.75-0.42-3.44-0.87-5.08-1.32c-1.63-0.46-3.21-0.91-4.7-1.38c-0.75-0.23-1.48-0.48-2.2-0.7
			c-0.71-0.24-1.41-0.47-2.08-0.72c-1.35-0.48-2.62-0.97-3.78-1.5c-0.29-0.13-0.57-0.27-0.84-0.41c-0.14-0.07-0.27-0.15-0.4-0.22
			c-0.07-0.04-0.13-0.07-0.2-0.11c-0.06-0.03-0.12-0.08-0.19-0.12c-0.25-0.16-0.49-0.32-0.73-0.48c-0.12-0.07-0.23-0.17-0.35-0.25
			c-0.11-0.08-0.22-0.17-0.33-0.25c-0.87-0.67-1.62-1.36-2.23-2.05c-0.61-0.68-1.11-1.34-1.48-1.94c-0.05-0.07-0.1-0.15-0.14-0.22
			c-0.04-0.07-0.09-0.15-0.13-0.22c-0.08-0.14-0.17-0.28-0.24-0.41c-0.14-0.27-0.27-0.51-0.37-0.73
			C153.45,315.45,153.31,315.09,153.23,314.86c-0.04-0.12-0.06-0.21-0.08-0.28c-0.02-0.06-0.03-0.09-0.03-0.09s0.01,0.03,0.02,0.09
			C153.16,314.64,153.19,314.74,153.23,314.86z"/>
		<path class="st5" d="M174.43,276c0.88,0.38,1.81,0.7,2.77,0.98c0.97,0.28,1.97,0.55,3,0.79c1.03,0.24,2.09,0.47,3.17,0.68
			c1.08,0.22,2.17,0.44,3.28,0.66c1.11,0.23,2.23,0.47,3.35,0.72c0.56,0.13,1.13,0.26,1.69,0.39c0.57,0.13,1.13,0.27,1.7,0.4
			c0.57,0.13,1.14,0.25,1.71,0.38c0.57,0.13,1.14,0.26,1.72,0.36c1.15,0.21,2.31,0.43,3.47,0.57c1.16,0.15,2.32,0.28,3.47,0.38
			c0.57,0.06,1.15,0.11,1.71,0.17c0.28,0.03,0.57,0.05,0.85,0.09c0.28,0.03,0.56,0.06,0.85,0.09c0.56,0.06,1.12,0.14,1.67,0.21
			c0.55,0.06,1.1,0.12,1.65,0.18c0.55,0.07,1.09,0.13,1.62,0.19c0.54,0.06,1.07,0.11,1.6,0.17c0.53,0.05,1.05,0.11,1.56,0.16
			c0.52,0.04,1.03,0.08,1.53,0.12c0.5,0.04,1,0.07,1.49,0.11c0.49,0.02,0.97,0.04,1.45,0.05c0.95,0.04,1.87,0.05,2.75,0.04
			c0.88-0.02,1.73-0.03,2.53-0.07c0.8-0.06,1.56-0.11,2.28-0.16c0.36-0.02,0.7-0.05,1.03-0.1c0.33-0.04,0.65-0.08,0.96-0.11
			c0.62-0.07,1.18-0.15,1.69-0.22c1.02-0.17,1.81-0.33,2.35-0.44c0.54-0.11,0.83-0.18,0.83-0.18s-0.3,0-0.85,0.01
			c-0.55,0.01-1.35,0.04-2.38,0.09c-0.51,0.01-1.08,0.02-1.69,0.04c-0.61,0.02-1.28,0.05-1.99,0.05c-0.71,0.01-1.46,0.02-2.26,0.03
			c-0.4,0.01-0.81,0-1.22,0c-0.42,0-0.85,0-1.28,0c-0.44,0-0.88,0.02-1.34,0c-0.45-0.01-0.92-0.02-1.39-0.02
			c-0.47,0-0.95,0-1.44-0.01c-0.49-0.01-0.98-0.02-1.48-0.03c-0.5-0.01-1.01-0.01-1.52-0.02c-0.51-0.01-1.03-0.04-1.56-0.06
			c-0.53-0.02-1.06-0.04-1.6-0.06c-0.54-0.02-1.08-0.07-1.62-0.11c-0.55-0.04-1.1-0.08-1.65-0.13c-0.55-0.06-1.11-0.12-1.67-0.18
			c-0.56-0.07-1.12-0.13-1.69-0.22c-0.56-0.09-1.13-0.19-1.69-0.29c-0.57-0.11-1.13-0.2-1.7-0.32c-0.57-0.12-1.14-0.23-1.71-0.33
			c-0.29-0.06-0.57-0.1-0.86-0.15l-0.86-0.16c-0.57-0.1-1.15-0.2-1.72-0.29c-1.15-0.19-2.3-0.38-3.45-0.57
			c-1.14-0.21-2.29-0.4-3.41-0.65c-1.12-0.25-2.24-0.5-3.32-0.8c-0.54-0.15-1.09-0.29-1.62-0.45c-0.53-0.16-1.06-0.32-1.59-0.48
			c-2.09-0.64-4.11-1.28-6.05-1.8c-0.48-0.14-0.96-0.27-1.44-0.37c-0.48-0.11-0.95-0.21-1.41-0.29c-0.47-0.09-0.93-0.16-1.38-0.23
			c-0.45-0.08-0.9-0.15-1.33-0.24c-0.86-0.17-1.67-0.38-2.43-0.63c0.76,0.25,1.55,0.54,2.35,0.89
			C172.72,275.22,173.55,275.62,174.43,276z"/>
		<path class="st5" d="M285.17,276.72c-0.01-0.31-0.03-0.63-0.13-0.93c-0.01-0.04-0.02-0.08-0.03-0.11l-0.05-0.11
			c-0.03-0.07-0.06-0.15-0.09-0.22l-0.12-0.21c-0.04-0.07-0.1-0.13-0.14-0.2c-0.2-0.26-0.46-0.48-0.75-0.64
			c-0.04-0.02-0.07-0.04-0.11-0.06l-0.11-0.05c-0.08-0.03-0.15-0.07-0.23-0.09c-0.16-0.05-0.32-0.09-0.48-0.11
			c-0.32-0.06-0.65-0.04-0.97-0.02l-0.24,0.04c-0.08,0.02-0.17,0.03-0.23,0.05c-0.14,0.04-0.27,0.07-0.42,0.12
			c-0.27,0.09-0.54,0.18-0.81,0.27c-0.53,0.18-1.06,0.36-1.58,0.54c-0.52,0.18-1.03,0.36-1.53,0.54c-0.5,0.18-0.99,0.35-1.46,0.52
			c-0.95,0.34-1.85,0.66-2.68,0.94c-0.83,0.28-1.6,0.54-2.28,0.75c-0.68,0.21-1.28,0.39-1.77,0.52c-0.49,0.14-0.88,0.24-1.15,0.32
			c-0.2,0.05-0.32,0.09-0.38,0.1c0.13-0.03,0.67-0.18,1.53-0.41c0.5-0.13,1.1-0.29,1.79-0.47c0.69-0.18,1.47-0.37,2.33-0.58
			c0.86-0.21,1.78-0.44,2.76-0.68c0.49-0.13,0.99-0.25,1.5-0.39c0.51-0.14,1.03-0.28,1.56-0.43c0.53-0.15,1.07-0.31,1.61-0.47
			c0.27-0.08,0.54-0.17,0.81-0.26c0.13-0.04,0.27-0.09,0.4-0.13c0.07-0.03,0.13-0.03,0.19-0.05l0.18-0.04
			c0.25-0.04,0.51-0.08,0.76-0.07c0.26,0,0.51,0.05,0.74,0.14c0.48,0.17,0.87,0.57,1.05,1.08c0.02,0.06,0.04,0.13,0.06,0.19
			l0.04,0.2c0.02,0.07,0.02,0.13,0.03,0.2l0.01,0.21c0,0.29,0,0.58,0.01,0.88c0,0.58,0.01,1.16,0.01,1.74c0,1.15,0,2.29-0.01,3.39
			c-0.01,2.2-0.02,4.25-0.03,6.01c0,0.88,0,1.68,0,2.4c0,0.71,0,1.34,0.02,1.85c0.03,1.03,0.13,1.61,0.13,1.61
			c0.07,0.26,0.07,0.51,0.07,0.77l-0.01,0.77c0,0.37-0.01,0.75-0.01,1.12l-0.06,0.42l0.05,0.3c-0.02,0.93-0.05,1.86-0.08,2.79
			l-0.11,3.08c-0.02,0.51-0.03,1.03-0.05,1.54c-0.02,0.51-0.02,1.03-0.03,1.54c-0.01,0.51-0.02,1.03-0.02,1.54l-0.01,1.54
			c-0.01,1.03,0.01,2.05,0.01,3.08l0.06,3.08l0.03,1.54c0.01,0.51,0.01,1.02,0.05,1.53c-0.01,0.05-0.02,0.11-0.03,0.16
			c-0.02,0.06-0.03,0.12-0.05,0.18c-0.04,0.12-0.08,0.24-0.14,0.36c-0.1,0.24-0.23,0.46-0.39,0.66c-0.16,0.2-0.34,0.39-0.56,0.53
			c-0.21,0.15-0.45,0.27-0.7,0.35l0.04,0.14c0.13-0.03,0.27-0.07,0.4-0.12c0.13-0.05,0.26-0.11,0.38-0.18
			c0.24-0.14,0.46-0.33,0.65-0.54c0.19-0.21,0.34-0.45,0.47-0.7c0.06-0.13,0.12-0.26,0.17-0.39c0.02-0.07,0.05-0.13,0.07-0.2
			c0.02-0.07,0.04-0.13,0.06-0.21v0l0-0.03c0.04-0.51,0.04-1.03,0.05-1.54l0.03-1.54l0.06-3.08c0-1.03,0.02-2.05,0.01-3.08
			l-0.01-1.54c0-0.51-0.01-1.03-0.02-1.54c-0.01-0.51-0.01-1.03-0.03-1.54c-0.01-0.51-0.03-1.03-0.05-1.54l-0.11-3.08
			c-0.03-0.78-0.05-1.55-0.07-2.33l0.89,5.45l-0.07-12.53l-0.85,5.7c0-0.3-0.01-0.6-0.01-0.91l-0.01-0.77c0-0.26,0-0.51,0.07-0.77
			c0,0,0.09-0.59,0.13-1.61c0.02-0.51,0.02-1.14,0.02-1.85c0-0.71,0-1.52,0-2.4c-0.01-1.76-0.02-3.81-0.03-6.01
			c-0.01-1.1-0.01-2.23-0.01-3.39c0-0.58,0.01-1.16,0.01-1.74C285.16,277.3,285.17,277.01,285.17,276.72z"/>
		<path class="st5" d="M244.78,329.34c12.27-1.68,24.38-4.71,36.12-9.11c1.01-0.39,1.84-1.5,1.84-2.45v-39.96
			c0-0.96-0.83-1.41-1.84-1.02c-11.74,4.2-23.86,7.04-36.12,8.53c-1.06,0.15-1.93,1.05-1.93,2.01v40.54
			C242.86,328.82,243.72,329.49,244.78,329.34z M273.87,312.19l-1.5-0.98l0.43-0.49l1.61,0.98L273.87,312.19z M277.19,301.61
			l-3.43,1.08v-1.17l3.43-1.02V301.61z M273.44,292.9l-0.43-0.39l1.82-1.96l0.39,0.53L273.44,292.9z M280.49,278.36
			c0.42-0.13,0.76,0.09,0.76,0.48c0,4.21,0.17,31.6,0.17,35.82c0,0-1.05-23.98-4.83-28.36c-3.16-3.67-10.5-3.77-10.5-3.77
			C269.56,282.13,278.16,279.11,280.49,278.36z M265.76,286.77l0.17,3.19l-1.29,0.39l-0.11-3.33L265.76,286.77z M264.46,301.91
			l0.94,0.56l5.04-8.83l-3.03,10.03l0.03,0.02l0.14-0.41l0.54-0.27l-0.55,0.76l5.6,3.35l-6.14-2.16l-0.28,0.94l-1.92,0.47
			l-0.75-1.56l0.43-0.75l-0.93-0.33l-0.3-1.15L264.46,301.91z M268.61,318.46l-1.07,0.1l-1.29,0.1l0.97-4.5l0.16,2.2l0.7-0.64
			L268.61,318.46z M255.66,290.37l1.61,0.98l-0.54,0.49l-1.5-0.98L255.66,290.37z M255.58,302.61c1.35,4.43-3.17,7.21-2.42,12.94
			c0.08,0.59,0.35,1.11,0.78,1.57c0.07-1,0.35-2.25,1.05-3.81c2.34-5.27,1.8-3.13,1.8-3.13s0.03,2.98,0.98,5.87l0.62-0.67l0.39,0.53
			l-0.77,0.79c0.44,1.14,1.04,2.23,1.85,3.07c4.71,1.05,10.16,1.1,10.16,1.1s-13.62,5.43-22.77,4.9c-2.22-0.53-1.81-1.69-1.81-2.72
			c0-1.02-0.15-28.61-0.43-33.96C244.73,283.74,253.27,295.04,255.58,302.61z"/>
		<path class="st5" d="M125.59,163.39l-6.49,26.27c-0.45,1.83-0.24,3.76,0.58,5.47l8.74,24.08c0.46,0.97,1.11,1.83,1.89,2.56
			c0.06,0.2,0.13,0.4,0.2,0.6l0.51-16.98l7.43,25.44l28.34,19.57c1.72,1.53,2.77,3.67,2.95,5.94c0.55,0.13,1.08,0.28,1.58,0.45
			c18.55,6.29,34.7,9.24,50.83,9.28c0.1,0,0.2,0,0.3,0c0.86,0,1.72-0.01,2.58-0.03V263c0-1.98,4.16-3.58,9.29-3.58
			c5.13,0,9.29,1.6,9.29,3.58v1.4c4.83-0.76,9.75-1.79,14.81-3.09v-3.18c0-1.98,4.16-3.58,9.29-3.58c3.03,0,5.72,0.56,7.41,1.42
			l-0.85-9.64c0.26-0.88,0.64-1.71,1.16-2.48l12.19-19.48c0.98-1.44,2.7-74.71,2.7-74.71c0.07-0.52-1.73-26.89-20.38-27.2
			c-3.84-0.06-5.77-0.55-8.06-1.03l1.48,7.1l-1.64-1.96l-2.3,2.17l1.66-2.94c0,0-4.09-6.33-4.78-6.86
			c-4.49-3.45-11.64-9.91-19.89-9.91c-8.51,0-11.24,4.22-18.22,4.41l0.58,2.8l3.9,2.06l-3.66-0.93l0.5,2.39l-6.01-8.14
			c-3.77-3.14-7.38-9.21-21.86-8.77c-8.52,0.26-11,7.27-17.92,11.67l-6.75,9.84l0.8-2.49l-2.21,0.81l2.59-1.97l1.33-4.12
			c-2.42,0.86-5.34,1.93-8.87,1.43c-34.34-4.78-26.39,60.2-26.39,60.2l-5.46-19.59C127.16,159.84,126.06,161.5,125.59,163.39z
			 M176.65,212.39c0,1.43-0.06,2.69-0.08,3.72c-0.02,1.03-0.07,1.84-0.09,2.4c-0.03,0.55-0.05,0.85-0.05,0.85l-0.55,0.04
			c0,0-0.06-0.29-0.17-0.83c-0.1-0.54-0.27-1.34-0.45-2.36c-0.17-1.02-0.42-2.25-0.63-3.67c-0.22-1.42-0.5-3.02-0.74-4.76
			c-0.26-1.75-0.52-3.64-0.77-5.64c-0.26-2-0.51-4.12-0.76-6.31c-0.12-1.09-0.24-2.21-0.36-3.33c-0.11-1.13-0.22-2.27-0.34-3.42
			c-0.21-2.3-0.44-4.64-0.62-6.98c-0.2-2.34-0.36-4.68-0.52-6.99c-0.14-2.31-0.27-4.58-0.36-6.78c-0.19-4.4-0.28-8.51-0.28-12.05
			c0-1.77,0.02-3.39,0.06-4.82c0.02-0.72,0.03-1.39,0.05-2.01c0.03-0.62,0.05-1.19,0.07-1.71c0.04-1.03,0.1-1.85,0.13-2.4
			c0.04-0.55,0.06-0.85,0.06-0.85l0.55-0.04c0,0,0.07,0.29,0.19,0.83c0.12,0.54,0.3,1.34,0.49,2.35c0.1,0.51,0.21,1.07,0.33,1.68
			c0.11,0.61,0.22,1.28,0.35,1.98c0.25,1.42,0.52,3.01,0.78,4.76c0.53,3.49,1.06,7.57,1.52,11.95c0.24,2.19,0.45,4.45,0.65,6.76
			c0.19,2.3,0.38,4.64,0.53,6.99c0.17,2.34,0.3,4.69,0.43,6.99c0.06,1.15,0.12,2.3,0.18,3.43c0.05,1.13,0.09,2.25,0.14,3.35
			c0.08,2.2,0.15,4.33,0.19,6.35c0.05,2.02,0.07,3.93,0.08,5.7C176.69,209.33,176.66,210.95,176.65,212.39z M218.36,253.24
			l-0.93-40.59c0,0,3.85,8.81,4.04,18.08C221.59,236.68,218.36,253.24,218.36,253.24z M214.07,208.66l2.68-46.08
			c0,0,2.41,10.11,1.78,20.63C218.13,189.96,214.07,208.66,214.07,208.66z M255.52,154.64c-0.02,2.1-0.1,4.55-0.27,7.16
			c-0.08,1.31-0.19,2.65-0.31,4.02c-0.13,1.37-0.27,2.75-0.42,4.14c-0.61,5.55-1.46,11.07-2.27,15.19
			c-0.19,1.03-0.41,1.97-0.58,2.81c-0.17,0.84-0.36,1.56-0.49,2.16c-0.29,1.2-0.48,1.88-0.48,1.88l-0.41-0.04
			c0,0-0.05-0.71-0.09-1.94c-0.01-0.61-0.05-1.36-0.04-2.22c0-0.85-0.02-1.82,0.01-2.87c0.06-4.2,0.35-9.78,0.9-15.33
			c0.13-1.39,0.28-2.78,0.43-4.14c0.17-1.36,0.34-2.7,0.52-4c0.37-2.59,0.79-5,1.21-7.06c0.21-1.03,0.41-1.97,0.6-2.81
			c0.19-0.83,0.38-1.56,0.53-2.16c0.31-1.19,0.53-1.87,0.53-1.87l0.41,0.04c0,0,0.08,0.71,0.13,1.94c0.03,0.62,0.06,1.36,0.08,2.22
			C255.52,152.62,255.53,153.59,255.52,154.64z M145.2,143.37c0.07-0.27,0.19-0.66,0.38-1.17c0.39-1,1.05-2.51,2.52-4
			c1.45-1.5,3.81-2.79,6.63-3.39c2.82-0.67,6.06-0.69,9.36-0.99c0.82-0.08,1.64-0.19,2.42-0.38c0.39-0.09,0.76-0.21,1.11-0.35
			c0.33-0.13,0.64-0.31,1.03-0.54c1.48-0.89,2.96-2.04,4.51-3.22c3.09-2.38,6.5-5.02,10.68-6.77c2.09-0.87,4.31-1.51,6.7-1.79
			l0.82-0.08l0.94-0.04c0.61,0,1.22,0.01,1.82,0.07c1.22,0.11,2.42,0.36,3.58,0.71c2.33,0.71,4.47,1.85,6.44,3.1
			c1.97,1.24,3.81,2.6,5.68,3.65c0.93,0.53,1.87,0.95,2.8,1.21c0.22,0.05,0.48,0.12,0.68,0.14l0.3,0.05l0.42,0.02l0.11,0.01l0.05,0
			c0,0,0,0,0.01,0l0.17,0l0.38-0.01c0.26-0.02,0.51-0.02,0.77-0.06c2.07-0.21,4.2-0.84,6.3-1.51c2.1-0.68,4.2-1.45,6.33-2.12
			c1.07-0.33,2.15-0.64,3.27-0.87c0.56-0.12,1.13-0.21,1.71-0.27c0.59-0.05,1.16-0.08,1.84-0.04l0.4,0.05l0.1,0.01
			c0.1,0.01,0.06,0.01,0.1,0.02l0.06,0.01l0.23,0.05c0.32,0.06,0.59,0.16,0.88,0.24c0.55,0.19,1.08,0.4,1.57,0.64
			c1,0.47,1.93,0.99,2.83,1.51c1.8,1.05,3.48,2.17,5.14,3.21c1.65,1.05,3.25,2.05,4.84,2.95c1.58,0.89,3.15,1.68,4.7,2.23
			c0.77,0.27,1.57,0.49,2.28,0.57c0.19,0.02,0.4,0.03,0.6,0.05c0.15,0.01,0.4,0.02,0.59,0.02c0.41,0.02,0.81,0.04,1.2,0.08
			c1.58,0.14,3.05,0.41,4.42,0.71c2.74,0.61,5.06,1.39,6.9,2.17c1.85,0.78,3.22,1.59,4.06,2.26c0.42,0.33,0.71,0.63,0.89,0.84
			c0.18,0.21,0.26,0.33,0.26,0.33s-0.09-0.11-0.28-0.31c-0.19-0.19-0.5-0.46-0.94-0.77c-0.87-0.61-2.27-1.31-4.14-1.98
			c-1.86-0.67-4.19-1.31-6.91-1.76c-1.36-0.22-2.81-0.39-4.34-0.46c-0.38-0.02-0.77-0.03-1.16-0.03c-0.21,0-0.36,0.01-0.62,0
			c-0.2-0.01-0.4-0.01-0.62-0.02c-0.92-0.07-1.75-0.27-2.6-0.52c-1.7-0.51-3.35-1.27-5.02-2.12c-1.66-0.85-3.33-1.8-5.03-2.78
			c-1.7-0.98-3.43-2-5.21-2.97c-0.89-0.48-1.79-0.95-2.71-1.34c-0.46-0.2-0.92-0.36-1.37-0.51c-0.22-0.05-0.45-0.13-0.66-0.15
			l-0.16-0.03l-0.04-0.01c0,0-0.01,0-0.02,0l-0.08-0.01l-0.4-0.03c-0.39-0.01-0.89,0.02-1.37,0.08c-0.49,0.07-0.98,0.16-1.48,0.29
			c-1,0.24-2.01,0.56-3.03,0.91c-2.04,0.7-4.11,1.52-6.26,2.27c-2.15,0.74-4.37,1.48-6.81,1.79c-0.62,0.08-1.2,0.13-1.91,0.11
			l-0.43-0.02l-0.54-0.06c-0.37-0.04-0.66-0.12-0.99-0.19c-1.27-0.32-2.43-0.84-3.48-1.41c-2.12-1.15-3.98-2.48-5.87-3.62
			c-1.89-1.14-3.78-2.14-5.75-2.72c-0.98-0.29-1.98-0.49-2.98-0.57c-0.5-0.05-1-0.05-1.5-0.05l-0.71,0.03l-0.82,0.08
			c-1.98,0.21-3.99,0.74-5.84,1.5c-3.74,1.54-7.03,3.89-10.18,6.2c-1.59,1.15-3.15,2.3-4.86,3.27c-0.41,0.23-0.9,0.49-1.43,0.67
			c-0.5,0.18-1,0.3-1.48,0.39c-0.96,0.18-1.88,0.26-2.77,0.3c-1.77,0.09-3.4,0.03-4.94,0.06c-1.53,0.02-2.97,0.09-4.29,0.26
			c-1.32,0.18-2.53,0.48-3.59,0.89c-1.06,0.41-1.97,0.96-2.72,1.54c-1.5,1.19-2.35,2.52-2.88,3.43c-0.26,0.46-0.45,0.83-0.56,1.08
			c-0.12,0.25-0.18,0.38-0.18,0.38l-0.02-0.01C145.09,143.78,145.12,143.64,145.2,143.37z"/>
		<path class="st5" d="M269.1,332.2l0.92,36.23c4.77-1.74,9.44-3.71,13.99-5.88l-2.51-34.32c-0.48,0.22-0.97,0.41-1.46,0.57
			C276.42,330.03,272.77,331.16,269.1,332.2z"/>
		<path class="st5" d="M244.88,283.49c0.52-0.04,1.03-0.07,1.54-0.14c0.51-0.05,1.03-0.1,1.54-0.18c0.51-0.06,1.02-0.13,1.53-0.21
			l0.76-0.11l0.76-0.13c0.51-0.08,1.01-0.17,1.52-0.27c0.5-0.09,1.01-0.19,1.51-0.29c0.5-0.1,1-0.2,1.5-0.31
			c0.5-0.11,1-0.21,1.5-0.32c0.5-0.11,1-0.22,1.5-0.34c0.5-0.12,1-0.23,1.49-0.35l1.49-0.37l1.49-0.38l1.48-0.4l1.48-0.41
			c0.49-0.15,0.98-0.31,1.44-0.53l-0.04-0.14c-0.52,0.04-1.02,0.14-1.52,0.25l-1.49,0.35l-2.98,0.68l-1.49,0.33
			c-0.5,0.11-1,0.21-1.5,0.31c-0.5,0.11-1,0.2-1.5,0.3c-0.5,0.1-1,0.19-1.5,0.28c-0.5,0.09-1,0.17-1.51,0.25
			c-0.5,0.08-1,0.16-1.51,0.23c-0.5,0.08-1.01,0.14-1.51,0.21l-0.75,0.1l-0.76,0.08c-0.5,0.06-1.01,0.11-1.51,0.15
			c-0.5,0.05-1.01,0.08-1.51,0.11c-0.5,0.04-1.01,0.04-1.51,0.07c-0.5,0.02-1.01,0.01-1.51,0.01l-0.11,0l-0.11,0.04v0
			c-0.07,0.04-0.11,0.07-0.16,0.11c-0.05,0.03-0.09,0.07-0.14,0.11c-0.09,0.07-0.17,0.15-0.26,0.22c-0.16,0.15-0.32,0.32-0.45,0.5
			c-0.14,0.18-0.26,0.37-0.35,0.57c-0.05,0.1-0.08,0.2-0.12,0.31c-0.01,0.05-0.03,0.1-0.04,0.16c-0.01,0.06-0.02,0.1-0.02,0.15
			l0.13,0.05c0.03-0.04,0.06-0.09,0.09-0.12c0.03-0.04,0.06-0.07,0.09-0.11c0.06-0.07,0.13-0.13,0.2-0.19
			c0.14-0.11,0.3-0.21,0.47-0.29c0.16-0.08,0.33-0.14,0.51-0.19c0.09-0.03,0.17-0.05,0.26-0.07l0.13-0.02
			c0.04-0.01,0.09-0.02,0.11-0.01l-0.22,0.04C243.85,283.55,244.37,283.54,244.88,283.49z"/>
		<path class="st5" d="M288.05,269.11c0,0-0.01-0.03-0.02-0.1c-0.01-0.06-0.04-0.17-0.08-0.29c-0.09-0.25-0.26-0.62-0.64-1
			c-0.18-0.19-0.42-0.36-0.7-0.52c-0.28-0.15-0.61-0.28-0.99-0.37c-0.74-0.17-1.64-0.17-2.58,0.07c-0.46,0.12-0.93,0.24-1.43,0.39
			c-0.5,0.14-1.02,0.3-1.56,0.46c-1.08,0.34-2.24,0.72-3.47,1.13c-1.23,0.41-2.54,0.86-3.92,1.32c-1.38,0.46-2.84,0.93-4.36,1.41
			c-3.04,0.96-6.37,1.89-9.91,2.74c-1.77,0.43-3.61,0.8-5.49,1.18c-0.94,0.18-1.89,0.36-2.85,0.53c-0.96,0.18-1.93,0.34-2.92,0.5
			c-3.93,0.64-8.01,1.21-12.19,1.55c-1.05,0.07-2.1,0.16-3.15,0.21c-1.06,0.04-2.11,0.12-3.17,0.11c-0.53,0-1.06-0.01-1.59-0.01
			c-0.53,0-1.06-0.02-1.6-0.03c-1.06-0.03-2.13-0.03-3.2-0.08c-4.26-0.14-8.51-0.43-12.68-0.87c-4.17-0.44-8.26-1.02-12.19-1.71
			c-3.93-0.68-7.71-1.47-11.26-2.31c-1.78-0.43-3.5-0.85-5.16-1.3c-0.83-0.22-1.65-0.44-2.44-0.67c-0.4-0.11-0.79-0.23-1.18-0.34
			c-0.39-0.12-0.78-0.23-1.16-0.34c-1.53-0.45-2.99-0.91-4.37-1.35c-1.38-0.46-2.68-0.9-3.9-1.34c-1.22-0.43-2.36-0.83-3.42-1.2
			c-1.06-0.37-2.03-0.7-2.91-1.01c-0.11-0.04-0.22-0.07-0.31-0.12c-0.12-0.05-0.23-0.09-0.34-0.13c-0.23-0.07-0.45-0.13-0.68-0.15
			c-0.45-0.06-0.91,0-1.28,0.19c-0.37,0.19-0.61,0.51-0.76,0.8c-0.15,0.3-0.22,0.58-0.26,0.83c-0.08,0.51-0.06,0.9-0.06,1.16
			c0.01,0.13,0.01,0.23,0.02,0.29c0.01,0.07,0.01,0.1,0.01,0.1s0-0.03,0.01-0.1c0-0.07,0.01-0.16,0.02-0.29
			c0.02-0.26,0.07-0.64,0.2-1.11c0.07-0.23,0.17-0.49,0.32-0.73c0.16-0.24,0.38-0.46,0.67-0.57c0.29-0.12,0.64-0.13,1.01-0.04
			c0.18,0.04,0.37,0.1,0.56,0.18c0.09,0.04,0.19,0.09,0.27,0.13c0.1,0.06,0.2,0.12,0.31,0.18c1.65,0.92,3.72,1.88,6.17,2.79
			c2.45,0.9,5.25,1.83,8.33,2.74c0.39,0.11,0.78,0.23,1.17,0.34c0.4,0.11,0.79,0.22,1.2,0.33c0.8,0.23,1.63,0.44,2.47,0.66
			c0.84,0.23,1.69,0.43,2.56,0.64c0.87,0.22,1.76,0.41,2.65,0.61c0.9,0.2,1.81,0.39,2.73,0.59c0.93,0.18,1.86,0.37,2.81,0.55
			c0.95,0.17,1.91,0.34,2.88,0.51c0.97,0.16,1.96,0.32,2.95,0.47c7.94,1.2,16.47,1.94,25.03,2.07c1.07,0.03,2.14,0.01,3.2,0.02
			c0.53,0,1.06,0.01,1.6-0.01c0.53-0.01,1.06-0.02,1.6-0.04c1.06-0.01,2.13-0.02,3.19-0.02c0.53,0,1.06-0.02,1.59-0.03
			c0.53-0.01,1.06-0.02,1.58-0.03c4.21-0.12,8.36-0.36,12.35-0.88c1.99-0.26,3.95-0.57,5.85-0.94c0.48-0.09,0.95-0.19,1.42-0.29
			c0.47-0.1,0.93-0.2,1.4-0.3c0.46-0.11,0.92-0.21,1.38-0.31c0.45-0.11,0.9-0.22,1.35-0.33c3.58-0.88,6.92-1.91,9.96-2.94
			c1.52-0.52,2.97-1.04,4.34-1.55c0.68-0.26,1.35-0.51,2-0.75c0.64-0.25,1.27-0.49,1.88-0.72c2.43-0.93,4.54-1.73,6.31-2.29
			c0.86-0.27,1.67-0.33,2.36-0.22c0.68,0.11,1.22,0.39,1.59,0.7c0.36,0.31,0.55,0.64,0.65,0.87c0.05,0.12,0.08,0.2,0.1,0.26
			c0.02,0.06,0.03,0.09,0.03,0.09c0.01,0.04,0.05,0.06,0.08,0.05C288.03,269.19,288.05,269.15,288.05,269.11z"/>
		<path class="st5" d="M214.28,53.48c-89.68,0-162.38,72.7-162.38,162.38c0,67.45,41.13,125.29,99.67,149.82l4.99-42.37
			c-1.15-1-2.21-2.14-3.15-3.4c-0.15-0.2-0.3-0.4-0.44-0.61c-0.07-0.1-0.14-0.21-0.21-0.32c-0.07-0.1-0.13-0.2-0.2-0.3
			c-0.09-0.14-0.18-0.29-0.27-0.43c-0.04-0.06-0.08-0.12-0.11-0.18c-0.1-0.17-0.2-0.34-0.29-0.51c-0.02-0.04-0.04-0.07-0.06-0.11
			c-0.1-0.19-0.2-0.38-0.3-0.57c-0.01-0.02-0.02-0.03-0.03-0.05c-0.1-0.2-0.2-0.41-0.3-0.61l-0.01-0.01
			c-0.2-0.42-0.37-0.84-0.53-1.27c-1.7-0.26-3.01-1.62-3.01-3.24v-45.09c0-1.3,0.84-2.43,2.04-2.96c0.37-2.06,1.56-3.88,3.44-5.23
			c1.87-1.34,4.15-2.05,6.23-2.41l-32.28-23.18c-1.82-1.62-3.25-3.61-4.23-5.83c-0.86-1.04-1.59-2.18-2.17-3.4l-8.73-24.08
			c-1.62-3.4-2.02-7.25-1.12-10.86l6.48-26.26c1.18-4.76,4.45-8.76,8.85-10.91c0.2-5.22,3.04-22.26,7.75-29.13
			c3.83-5.59,11.47-12.28,26.1-12.41c7.3-0.06,9.97-2.73,13.67-6.42c3.59-3.58,8.52-8.49,17.19-8.76
			c15.49-0.47,21.74,5.23,25.48,8.64c0.37,0.34,0.85,0.77,1.18,1.05c1.72-0.12,3.13-0.63,5.17-1.38c3.21-1.18,7.21-2.65,13.18-2.65
			c10.2,0,18.13,6.53,23.38,10.85c0.79,0.65,1.81,1.5,2.45,1.96c0.71,0.13,1.34,0.27,1.92,0.39c1.86,0.4,3.21,0.68,5.93,0.73
			c11.17,0.18,19.69,5.61,24.01,15.29c2.55,5.71,4.27,19.62,4.28,20.86c0,0,0.23,59.52-0.65,65.37c-1.56,10.35-2.3,12.21-3.3,13.73
			l-12.23,20.43c-0.15,0.39-0.28,1.22-0.25,1.61l0.02,0.3l0.35,3.87c2.91,0.18,5.71,0.93,7.81,2.43c1.83,1.32,3.01,3.12,3.41,5.17
			c1.57,0.35,2.75,1.65,2.75,3.19v45.09c0,1.81-1.62,3.29-3.6,3.29l-0.11,0.03c-0.08,0.21-0.16,0.42-0.25,0.62c0,0,0,0.01,0,0.01
			c-0.09,0.2-0.18,0.4-0.27,0.6c-0.01,0.01-0.01,0.03-0.02,0.04c-0.09,0.19-0.18,0.38-0.28,0.57c-0.01,0.03-0.03,0.06-0.04,0.09
			c-0.09,0.18-0.18,0.35-0.28,0.52c-0.03,0.05-0.05,0.1-0.08,0.14c-0.09,0.16-0.18,0.31-0.27,0.46c-0.04,0.07-0.09,0.14-0.13,0.22
			c-0.08,0.13-0.16,0.26-0.24,0.39c-0.07,0.11-0.14,0.21-0.21,0.32c-0.06,0.1-0.13,0.19-0.19,0.29c-0.14,0.2-0.29,0.4-0.43,0.6
			c-0.45,0.6-0.92,1.17-1.42,1.71l3.52,37.14c50.75-27.46,85.22-81.16,85.22-142.91C376.67,126.18,303.96,53.48,214.28,53.48z"/>
		<polygon class="st5" points="261.71,263.06 263.69,263.58 263.72,261.81 261.71,260.76 		"/>
		<polygon class="st5" points="228.33,267.93 230.31,268.44 230.34,266.68 228.33,265.62 		"/>
		<path class="st5" d="M244.89,268.2c-0.25,5.66-5.93,6.72-5.93,6.72c13.49-0.73,21.46-3.1,29.85-5.92c0,0-6.35,0.42-10.43-3.48
			C253.14,266.98,247.47,267.62,244.89,268.2z"/>
		<path class="st5" d="M276.05,267.49c-0.17,0.07-0.26,0.12-0.26,0.12C275.88,267.57,275.97,267.53,276.05,267.49z"/>
		<path class="st5" d="M156.64,262.42c-0.04,0,2.44-1.25,4.21-1.25c3.77,0,2.42,3.14,3.51,3.58c9.71,3.95,26.66,10.04,61.21,11.11
			c2.66,0.08,8.21-0.3,8.21-0.3c-3.9,0.04-8.43-1.32-10.22-5.08c-12.57-0.11-24.67,0.74-33.57-1.12c-3.27-0.68-5.85-2.28-8.21-3.7
			c1.34,0.41,3.29,0.92,6.15,1.53c9.65,2.06,23,2.6,23,2.6l-31.45-5.44c-0.71-0.36-1.41-0.67-2.13-0.9
			c-6.25-1.94-10.03-3.61-10.82-3.94c0,0-3.86-0.94-6.59,0.19C157.2,260.82,156.64,262.42,156.64,262.42z"/>
		<path class="st5" d="M177.42,333.1c-3.93-0.97-7.84-2.08-11.71-3.31c-0.19,0.96-2.75,21.06-5.09,39.38
			c4.15,1.45,8.37,2.75,12.67,3.87L177.42,333.1z"/>
		<path class="st5" d="M289.65,290.28c0,0.95,0.01,1.89,0.01,2.82c0,0.93,0.03,1.85,0.04,2.73c0.01,0.89,0.04,1.74,0.06,2.56
			c0.02,0.81,0.05,1.58,0.07,2.29c0.05,1.42,0.11,2.6,0.16,3.43c0.02,0.41,0.05,0.74,0.06,0.96c0.02,0.22,0.02,0.34,0.02,0.34h0.08
			c0,0,0.01-0.12,0.02-0.34c0.01-0.22,0.04-0.55,0.06-0.96c0.05-0.83,0.11-2.01,0.16-3.43c0.03-0.71,0.05-1.48,0.07-2.29
			c0.02-0.81,0.05-1.67,0.06-2.56c0.01-0.89,0.03-1.8,0.04-2.73c0-0.93,0.01-1.88,0.01-2.82c0-0.95-0.01-1.89-0.01-2.82
			c0-0.93-0.02-1.85-0.04-2.73c-0.01-0.89-0.03-1.74-0.06-2.55c-0.02-0.81-0.05-1.58-0.07-2.29c-0.02-0.71-0.05-1.36-0.08-1.93
			c-0.02-0.58-0.05-1.08-0.08-1.49c-0.02-0.41-0.05-0.74-0.06-0.96c-0.02-0.22-0.02-0.34-0.02-0.34h-0.08c0,0-0.01,0.12-0.02,0.34
			c-0.01,0.22-0.04,0.55-0.06,0.96c-0.02,0.41-0.05,0.92-0.08,1.49c-0.03,0.58-0.06,1.23-0.08,1.93c-0.03,0.71-0.05,1.48-0.07,2.29
			c-0.02,0.81-0.05,1.67-0.06,2.55c-0.01,0.89-0.04,1.8-0.04,2.73C289.65,288.39,289.65,289.33,289.65,290.28z"/>
		<path class="st5" d="M267.49,257.41c-2.9,0-5.25,0.77-5.25,1.71c0,0.94,2.35,1.71,5.25,1.71s5.25-0.77,5.25-1.71
			C272.74,258.17,270.39,257.41,267.49,257.41z"/>
		<path class="st5" d="M263.61,333.66c-13.84,3.49-28.03,5.52-42.23,5.52c-11.85,0-29.74-2.65-41.39-4.93l-2.06,39.91
			c11.69,2.67,23.86,4.09,36.35,4.09c19.56,0,38.32-3.46,55.69-9.8L263.61,333.66z"/>
		<path class="st5" d="M239.36,263.98c0-0.94-2.35-1.71-5.25-1.71c-2.9,0-5.25,0.77-5.25,1.71c0,0.94,2.35,1.71,5.25,1.71
			C237.01,265.69,239.36,264.93,239.36,263.98z"/>
		<path class="st5" d="M267.29,262.26c-0.36,0,1.28,0.59,1.2,1.58c-0.05,0.64-0.99,1.57-1.64,2.15c-0.21-0.01-0.42-0.02-0.63-0.04
			c-0.14-0.01-0.28-0.03-0.42-0.05c-0.14-0.02-0.27-0.03-0.4-0.06c-0.26-0.05-0.51-0.09-0.73-0.15c-0.23-0.05-0.43-0.11-0.61-0.17
			c-0.18-0.06-0.34-0.11-0.46-0.16c-0.13-0.05-0.23-0.09-0.29-0.12c-0.07-0.03-0.1-0.05-0.1-0.05c-0.03-0.01-0.06,0-0.07,0.02
			c-0.02,0.03-0.01,0.06,0.02,0.08l0,0c0,0,0.03,0.02,0.1,0.06c0.06,0.04,0.16,0.09,0.28,0.15c0.12,0.06,0.27,0.14,0.45,0.21
			c0.18,0.08,0.38,0.16,0.6,0.24c0.22,0.09,0.47,0.16,0.73,0.24c0.13,0.04,0.27,0.07,0.41,0.11c0.14,0.03,0.28,0.08,0.43,0.1
			c0.05,0.01,0.1,0.02,0.15,0.03c-0.04,0.03-0.07,0.05-0.07,0.05c0.17,0.01,0.35,0.02,0.52,0.02c0.1,0.02,0.2,0.03,0.31,0.04
			c0.16,0.02,0.32,0.04,0.48,0.05c0.16,0.01,0.32,0.01,0.48,0.02l0.24,0.01c0.08,0,0.16,0,0.24-0.01c0.16-0.01,0.32-0.01,0.48-0.02
			c0.16,0,0.32-0.02,0.47-0.04c0.16-0.02,0.31-0.04,0.46-0.05c0.15-0.01,0.3-0.05,0.44-0.08c0.14-0.03,0.29-0.06,0.42-0.09
			c0.28-0.05,0.53-0.14,0.77-0.2c0.12-0.04,0.23-0.07,0.34-0.1c0.05-0.02,0.11-0.03,0.16-0.05c0.05-0.02,0.1-0.04,0.14-0.06
			c0.19-0.07,0.35-0.14,0.48-0.19c0.27-0.11,0.42-0.17,0.42-0.17c0.02-0.01,0.04-0.02,0.07-0.03c0.31-0.17,0.42-0.55,0.26-0.86
			c-0.09-0.16-0.23-0.26-0.39-0.31v-3.47C271.94,261.72,269.78,262.26,267.29,262.26z"/>
		<path class="st5" d="M292.85,263.69c-0.01,0.04-0.04,0.09-0.08,0.15c-0.04,0.06-0.09,0.12-0.15,0.18
			c-0.24,0.25-0.63,0.54-1.06,0.78c-0.11,0.06-0.22,0.12-0.33,0.17c-0.11,0.05-0.22,0.11-0.33,0.15c-0.11,0.05-0.21,0.09-0.31,0.14
			c-0.1,0.04-0.2,0.08-0.29,0.12c-0.19,0.07-0.34,0.13-0.45,0.17c-0.11,0.04-0.18,0.07-0.18,0.07l0.01,0.14c0,0,0.07,0.02,0.19,0.03
			c0.12,0.02,0.3,0.03,0.51,0.02c0.21-0.01,0.46-0.04,0.72-0.11c0.13-0.03,0.26-0.08,0.39-0.13c0.13-0.05,0.26-0.11,0.39-0.18
			c0.25-0.14,0.49-0.31,0.68-0.51c0.2-0.2,0.35-0.41,0.44-0.63c0.09-0.21,0.12-0.43,0.08-0.58c-0.01-0.04-0.02-0.07-0.04-0.1
			c-0.02-0.03-0.03-0.06-0.04-0.07c-0.02-0.02-0.04-0.03-0.04-0.03l-0.13,0.07c0,0,0,0.02,0.01,0.05c0,0.02,0,0.03-0.01,0.04
			C292.86,263.65,292.85,263.67,292.85,263.69z"/>
		<path class="st5" d="M285.83,260.07c-2.54-1.73-6.31-1.1-6.31-1.1s-1,0.2-2.83,0.63c0.96,3.04,1.36,6.85-0.64,7.9
			c0.95-0.43,4.33-1.93,7.05-2.94c0.94-0.35-2.64-2-0.29-2.44c2.2-0.41,6.1,0.62,6.1,0.62S288.79,262.08,285.83,260.07z"/>
	</g>
</g>
</svg>
